<svg xmlns="http://www.w3.org/2000/svg" xmlns:xlink="http://www.w3.org/1999/xlink" xmlns:svgjs="http://svgjs.com/svgjs" version="1.1" width="50" height="50" x="0" y="0" viewBox="0 0 512 512" style="enable-background:new 0 0 512 512" xml:space="preserve" class="">
                    <g>
                        <g xmlns="http://www.w3.org/2000/svg">
                            <path d="m373.461 191.987c6.902 4.582 16.211 2.701 20.793-4.2 4.582-6.902 2.701-16.211-4.2-20.793l-125.758-83.491c-5.027-3.338-11.565-3.338-16.593 0l-125.757 83.491c-6.902 4.582-8.782 13.891-4.2 20.793 4.582 6.902 13.891 8.782 20.793 4.2l117.461-77.982z" data-original="#000000" class="" style="fill: rgb(148, 210, 189);"></path>
                            <path d="m312.459 232.488c6.902 4.582 16.211 2.702 20.793-4.2 4.582-6.902 2.702-16.211-4.2-20.793l-64.756-42.992c-5.027-3.338-11.565-3.338-16.593 0l-64.756 42.992c-6.902 4.582-8.782 13.891-4.2 20.793 4.582 6.902 13.891 8.782 20.793 4.2l56.46-37.483z" data-original="#000000" class="" style="fill: rgb(148, 210, 189);"></path>
                            <path d="m505.296 324.503-42.18-28.004 42.18-28.003c8.938-5.934 8.938-19.059 0-24.993l-42.18-28.003 42.18-28.003c8.938-5.934 8.938-19.059 0-24.993l-241-160c-5.027-3.338-11.566-3.338-16.593 0l-241 160c-8.938 5.934-8.938 19.059 0 24.993l42.18 28.003-42.18 28.003c-8.938 5.934-8.938 19.059 0 24.993l42.18 28.003-42.18 28.004c-8.938 5.934-8.938 19.059 0 24.993l241 160c5.028 3.338 11.566 3.338 16.593 0l241-160c8.938-5.933 8.938-19.059 0-24.993zm-249.296-291.498 213.88 141.995-213.88 141.995-213.88-141.995zm-179.996 200.5 171.7 113.992c5.028 3.338 11.566 3.338 16.593 0l171.7-113.992 33.883 22.495-213.88 141.995-213.88-141.995zm179.996 245.49-213.88-141.995 33.883-22.495 171.7 113.992c5.028 3.338 11.566 3.338 16.593 0l171.7-113.992 33.884 22.495z" data-original="#000000" class="" style="fill: rgb(148, 210, 189);"></path>
                        </g>
                    </g>
                </svg>