<svg xmlns="http://www.w3.org/2000/svg" version="1.1" xmlns:xlink="http://www.w3.org/1999/xlink" xmlns:svgjs="http://svgjs.com/svgjs" width="1440" height="560" preserveAspectRatio="none" viewBox="0 0 1440 560"><g mask="url(&quot;#SvgjsMask1006&quot;)" fill="none"><path d="M-48.99 365.35L-48.99 365.35" stroke="rgba(199, 213, 205, 1)" stroke-width="1.5"></path><path d="M-48.99 365.35L75.19 383.12" stroke="rgba(199, 213, 205, 1)" stroke-width="1.5"></path><path d="M-48.99 365.35L-71.2 542.87" stroke="rgba(199, 213, 205, 1)" stroke-width="1.5"></path><path d="M-71.2 542.87L-71.2 542.87" stroke="rgba(199, 213, 205, 1)" stroke-width="1.5"></path><path d="M-71.2 542.87L-111.68 641.74" stroke="rgba(199, 213, 205, 1)" stroke-width="1.5"></path><path d="M-71.2 542.87L79.97 526.49" stroke="rgba(199, 213, 205, 1)" stroke-width="1.5"></path><path d="M-71.2 542.87L60.22 663.9" stroke="rgba(199, 213, 205, 1)" stroke-width="1.5"></path><path d="M-71.2 542.87L75.19 383.12" stroke="rgba(199, 213, 205, 1)" stroke-width="1.5"></path><path d="M-111.68 641.74L-111.68 641.74" stroke="rgba(199, 213, 205, 1)" stroke-width="1.5"></path><path d="M-111.68 641.74L60.22 663.9" stroke="rgba(199, 213, 205, 1)" stroke-width="1.5"></path><path d="M75.19 383.12L75.19 383.12" stroke="rgba(199, 213, 205, 1)" stroke-width="1.5"></path><path d="M75.19 383.12L79.97 526.49" stroke="rgba(199, 213, 205, 1)" stroke-width="1.5"></path><path d="M75.19 383.12L247.91 390.64" stroke="rgba(199, 213, 205, 1)" stroke-width="1.5"></path><path d="M75.19 383.12L239.73 558.55" stroke="rgba(199, 213, 205, 1)" stroke-width="1.5"></path><path d="M75.19 383.12L60.22 663.9" stroke="rgba(199, 213, 205, 1)" stroke-width="1.5"></path><path d="M79.97 526.49L79.97 526.49" stroke="rgba(199, 213, 205, 1)" stroke-width="1.5"></path><path d="M79.97 526.49L60.22 663.9" stroke="rgba(199, 213, 205, 1)" stroke-width="1.5"></path><path d="M79.97 526.49L239.73 558.55" stroke="rgba(199, 213, 205, 1)" stroke-width="1.5"></path><path d="M60.22 663.9L60.22 663.9" stroke="rgba(199, 213, 205, 1)" stroke-width="1.5"></path><path d="M60.22 663.9L231.63 674.53" stroke="rgba(199, 213, 205, 1)" stroke-width="1.5"></path><path d="M247.91 390.64L247.91 390.64" stroke="rgba(199, 213, 205, 1)" stroke-width="1.5"></path><path d="M247.91 390.64L358.03 358.53" stroke="rgba(199, 213, 205, 1)" stroke-width="1.5"></path><path d="M247.91 390.64L239.73 558.55" stroke="rgba(199, 213, 205, 1)" stroke-width="1.5"></path><path d="M247.91 390.64L352.07 548.62" stroke="rgba(199, 213, 205, 1)" stroke-width="1.5"></path><path d="M247.91 390.64L79.97 526.49" stroke="rgba(199, 213, 205, 1)" stroke-width="1.5"></path><path d="M247.91 390.64L231.63 674.53" stroke="rgba(199, 213, 205, 1)" stroke-width="1.5"></path><path d="M239.73 558.55L239.73 558.55" stroke="rgba(199, 213, 205, 1)" stroke-width="1.5"></path><path d="M239.73 558.55L352.07 548.62" stroke="rgba(199, 213, 205, 1)" stroke-width="1.5"></path><path d="M239.73 558.55L231.63 674.53" stroke="rgba(199, 213, 205, 1)" stroke-width="1.5"></path><path d="M239.73 558.55L349.97 660.27" stroke="rgba(199, 213, 205, 1)" stroke-width="1.5"></path><path d="M231.63 674.53L231.63 674.53" stroke="rgba(199, 213, 205, 1)" stroke-width="1.5"></path><path d="M231.63 674.53L349.97 660.27" stroke="rgba(199, 213, 205, 1)" stroke-width="1.5"></path><path d="M231.63 674.53L352.07 548.62" stroke="rgba(199, 213, 205, 1)" stroke-width="1.5"></path><path d="M231.63 674.53L79.97 526.49" stroke="rgba(199, 213, 205, 1)" stroke-width="1.5"></path><path d="M358.03 358.53L358.03 358.53" stroke="rgba(199, 213, 205, 1)" stroke-width="1.5"></path><path d="M358.03 358.53L352.07 548.62" stroke="rgba(199, 213, 205, 1)" stroke-width="1.5"></path><path d="M352.07 548.62L352.07 548.62" stroke="rgba(199, 213, 205, 1)" stroke-width="1.5"></path><path d="M352.07 548.62L349.97 660.27" stroke="rgba(199, 213, 205, 1)" stroke-width="1.5"></path><path d="M349.97 660.27L349.97 660.27" stroke="rgba(199, 213, 205, 1)" stroke-width="1.5"></path><path d="M349.97 660.27L548.62 691.46" stroke="rgba(199, 213, 205, 1)" stroke-width="1.5"></path><path d="M349.97 660.27L552.87 538.45" stroke="rgba(199, 213, 205, 1)" stroke-width="1.5"></path><path d="M349.97 660.27L247.91 390.64" stroke="rgba(199, 213, 205, 1)" stroke-width="1.5"></path><path d="M560.52 363.5L560.52 363.5" stroke="rgba(199, 213, 205, 1)" stroke-width="1.5"></path><path d="M560.52 363.5L697.12 393.37" stroke="rgba(199, 213, 205, 1)" stroke-width="1.5"></path><path d="M560.52 363.5L662.2 490" stroke="rgba(199, 213, 205, 1)" stroke-width="1.5"></path><path d="M560.52 363.5L552.87 538.45" stroke="rgba(199, 213, 205, 1)" stroke-width="1.5"></path><path d="M560.52 363.5L358.03 358.53" stroke="rgba(199, 213, 205, 1)" stroke-width="1.5"></path><path d="M560.52 363.5L795.87 507.9" stroke="rgba(199, 213, 205, 1)" stroke-width="1.5"></path><path d="M552.87 538.45L552.87 538.45" stroke="rgba(199, 213, 205, 1)" stroke-width="1.5"></path><path d="M552.87 538.45L662.2 490" stroke="rgba(199, 213, 205, 1)" stroke-width="1.5"></path><path d="M552.87 538.45L548.62 691.46" stroke="rgba(199, 213, 205, 1)" stroke-width="1.5"></path><path d="M552.87 538.45L352.07 548.62" stroke="rgba(199, 213, 205, 1)" stroke-width="1.5"></path><path d="M552.87 538.45L697.12 393.37" stroke="rgba(199, 213, 205, 1)" stroke-width="1.5"></path><path d="M552.87 538.45L703.82 694.89" stroke="rgba(199, 213, 205, 1)" stroke-width="1.5"></path><path d="M548.62 691.46L548.62 691.46" stroke="rgba(199, 213, 205, 1)" stroke-width="1.5"></path><path d="M548.62 691.46L703.82 694.89" stroke="rgba(199, 213, 205, 1)" stroke-width="1.5"></path><path d="M697.12 393.37L697.12 393.37" stroke="rgba(199, 213, 205, 1)" stroke-width="1.5"></path><path d="M697.12 393.37L662.2 490" stroke="rgba(199, 213, 205, 1)" stroke-width="1.5"></path><path d="M697.12 393.37L795.87 507.9" stroke="rgba(199, 213, 205, 1)" stroke-width="1.5"></path><path d="M697.12 393.37L862.37 380.1" stroke="rgba(199, 213, 205, 1)" stroke-width="1.5"></path><path d="M662.2 490L662.2 490" stroke="rgba(199, 213, 205, 1)" stroke-width="1.5"></path><path d="M662.2 490L795.87 507.9" stroke="rgba(199, 213, 205, 1)" stroke-width="1.5"></path><path d="M662.2 490L703.82 694.89" stroke="rgba(199, 213, 205, 1)" stroke-width="1.5"></path><path d="M703.82 694.89L703.82 694.89" stroke="rgba(199, 213, 205, 1)" stroke-width="1.5"></path><path d="M703.82 694.89L791.01 705.58" stroke="rgba(199, 213, 205, 1)" stroke-width="1.5"></path><path d="M703.82 694.89L795.87 507.9" stroke="rgba(199, 213, 205, 1)" stroke-width="1.5"></path><path d="M848.85 79.97L848.85 79.97" stroke="rgba(199, 213, 205, 1)" stroke-width="1.5"></path><path d="M848.85 79.97L941.24 111.02" stroke="rgba(199, 213, 205, 1)" stroke-width="1.5"></path><path d="M848.85 79.97L841.17 232.79" stroke="rgba(199, 213, 205, 1)" stroke-width="1.5"></path><path d="M848.85 79.97L945.34 -52.5" stroke="rgba(199, 213, 205, 1)" stroke-width="1.5"></path><path d="M841.17 232.79L841.17 232.79" stroke="rgba(199, 213, 205, 1)" stroke-width="1.5"></path><path d="M841.17 232.79L862.37 380.1" stroke="rgba(199, 213, 205, 1)" stroke-width="1.5"></path><path d="M841.17 232.79L941.24 111.02" stroke="rgba(199, 213, 205, 1)" stroke-width="1.5"></path><path d="M841.17 232.79L1001.46 346.56" stroke="rgba(199, 213, 205, 1)" stroke-width="1.5"></path><path d="M841.17 232.79L697.12 393.37" stroke="rgba(199, 213, 205, 1)" stroke-width="1.5"></path><path d="M862.37 380.1L862.37 380.1" stroke="rgba(199, 213, 205, 1)" stroke-width="1.5"></path><path d="M862.37 380.1L1001.46 346.56" stroke="rgba(199, 213, 205, 1)" stroke-width="1.5"></path><path d="M862.37 380.1L795.87 507.9" stroke="rgba(199, 213, 205, 1)" stroke-width="1.5"></path><path d="M795.87 507.9L795.87 507.9" stroke="rgba(199, 213, 205, 1)" stroke-width="1.5"></path><path d="M791.01 705.58L791.01 705.58" stroke="rgba(199, 213, 205, 1)" stroke-width="1.5"></path><path d="M791.01 705.58L962.83 657.49" stroke="rgba(199, 213, 205, 1)" stroke-width="1.5"></path><path d="M945.34 -52.5L945.34 -52.5" stroke="rgba(199, 213, 205, 1)" stroke-width="1.5"></path><path d="M945.34 -52.5L941.24 111.02" stroke="rgba(199, 213, 205, 1)" stroke-width="1.5"></path><path d="M945.34 -52.5L1160.24 -46.87" stroke="rgba(199, 213, 205, 1)" stroke-width="1.5"></path><path d="M945.34 -52.5L841.17 232.79" stroke="rgba(199, 213, 205, 1)" stroke-width="1.5"></path><path d="M945.34 -52.5L1117.48 206.74" stroke="rgba(199, 213, 205, 1)" stroke-width="1.5"></path><path d="M945.34 -52.5L1241.28 67.23" stroke="rgba(199, 213, 205, 1)" stroke-width="1.5"></path><path d="M941.24 111.02L941.24 111.02" stroke="rgba(199, 213, 205, 1)" stroke-width="1.5"></path><path d="M941.24 111.02L1117.48 206.74" stroke="rgba(199, 213, 205, 1)" stroke-width="1.5"></path><path d="M941.24 111.02L1001.46 346.56" stroke="rgba(199, 213, 205, 1)" stroke-width="1.5"></path><path d="M1001.46 346.56L1001.46 346.56" stroke="rgba(199, 213, 205, 1)" stroke-width="1.5"></path><path d="M1001.46 346.56L1142.65 378.53" stroke="rgba(199, 213, 205, 1)" stroke-width="1.5"></path><path d="M1001.46 346.56L1117.48 206.74" stroke="rgba(199, 213, 205, 1)" stroke-width="1.5"></path><path d="M1001.46 346.56L948.83 528.74" stroke="rgba(199, 213, 205, 1)" stroke-width="1.5"></path><path d="M948.83 528.74L948.83 528.74" stroke="rgba(199, 213, 205, 1)" stroke-width="1.5"></path><path d="M948.83 528.74L962.83 657.49" stroke="rgba(199, 213, 205, 1)" stroke-width="1.5"></path><path d="M948.83 528.74L795.87 507.9" stroke="rgba(199, 213, 205, 1)" stroke-width="1.5"></path><path d="M948.83 528.74L862.37 380.1" stroke="rgba(199, 213, 205, 1)" stroke-width="1.5"></path><path d="M948.83 528.74L1132.31 525.21" stroke="rgba(199, 213, 205, 1)" stroke-width="1.5"></path><path d="M962.83 657.49L962.83 657.49" stroke="rgba(199, 213, 205, 1)" stroke-width="1.5"></path><path d="M962.83 657.49L1095.77 678.6" stroke="rgba(199, 213, 205, 1)" stroke-width="1.5"></path><path d="M962.83 657.49L1132.31 525.21" stroke="rgba(199, 213, 205, 1)" stroke-width="1.5"></path><path d="M962.83 657.49L795.87 507.9" stroke="rgba(199, 213, 205, 1)" stroke-width="1.5"></path><path d="M962.83 657.49L703.82 694.89" stroke="rgba(199, 213, 205, 1)" stroke-width="1.5"></path><path d="M1160.24 -46.87L1160.24 -46.87" stroke="rgba(199, 213, 205, 1)" stroke-width="1.5"></path><path d="M1160.24 -46.87L1270.38 -98.13" stroke="rgba(199, 213, 205, 1)" stroke-width="1.5"></path><path d="M1160.24 -46.87L1241.28 67.23" stroke="rgba(199, 213, 205, 1)" stroke-width="1.5"></path><path d="M1160.24 -46.87L1393.84 -55.01" stroke="rgba(199, 213, 205, 1)" stroke-width="1.5"></path><path d="M1117.48 206.74L1117.48 206.74" stroke="rgba(199, 213, 205, 1)" stroke-width="1.5"></path><path d="M1117.48 206.74L1242.42 244.1" stroke="rgba(199, 213, 205, 1)" stroke-width="1.5"></path><path d="M1117.48 206.74L1142.65 378.53" stroke="rgba(199, 213, 205, 1)" stroke-width="1.5"></path><path d="M1142.65 378.53L1142.65 378.53" stroke="rgba(199, 213, 205, 1)" stroke-width="1.5"></path><path d="M1142.65 378.53L1132.31 525.21" stroke="rgba(199, 213, 205, 1)" stroke-width="1.5"></path><path d="M1142.65 378.53L1242.42 244.1" stroke="rgba(199, 213, 205, 1)" stroke-width="1.5"></path><path d="M1142.65 378.53L1309.19 353.3" stroke="rgba(199, 213, 205, 1)" stroke-width="1.5"></path><path d="M1132.31 525.21L1132.31 525.21" stroke="rgba(199, 213, 205, 1)" stroke-width="1.5"></path><path d="M1132.31 525.21L1095.77 678.6" stroke="rgba(199, 213, 205, 1)" stroke-width="1.5"></path><path d="M1132.31 525.21L1304.85 500.04" stroke="rgba(199, 213, 205, 1)" stroke-width="1.5"></path><path d="M1132.31 525.21L1271.14 638.34" stroke="rgba(199, 213, 205, 1)" stroke-width="1.5"></path><path d="M1095.77 678.6L1095.77 678.6" stroke="rgba(199, 213, 205, 1)" stroke-width="1.5"></path><path d="M1095.77 678.6L1271.14 638.34" stroke="rgba(199, 213, 205, 1)" stroke-width="1.5"></path><path d="M1270.38 -98.13L1270.38 -98.13" stroke="rgba(199, 213, 205, 1)" stroke-width="1.5"></path><path d="M1241.28 67.23L1241.28 67.23" stroke="rgba(199, 213, 205, 1)" stroke-width="1.5"></path><path d="M1241.28 67.23L1270.38 -98.13" stroke="rgba(199, 213, 205, 1)" stroke-width="1.5"></path><path d="M1241.28 67.23L1408.49 95.3" stroke="rgba(199, 213, 205, 1)" stroke-width="1.5"></path><path d="M1241.28 67.23L1242.42 244.1" stroke="rgba(199, 213, 205, 1)" stroke-width="1.5"></path><path d="M1241.28 67.23L1117.48 206.74" stroke="rgba(199, 213, 205, 1)" stroke-width="1.5"></path><path d="M1241.28 67.23L1393.84 -55.01" stroke="rgba(199, 213, 205, 1)" stroke-width="1.5"></path><path d="M1242.42 244.1L1242.42 244.1" stroke="rgba(199, 213, 205, 1)" stroke-width="1.5"></path><path d="M1242.42 244.1L1309.19 353.3" stroke="rgba(199, 213, 205, 1)" stroke-width="1.5"></path><path d="M1309.19 353.3L1309.19 353.3" stroke="rgba(199, 213, 205, 1)" stroke-width="1.5"></path><path d="M1309.19 353.3L1419.9 339.14" stroke="rgba(199, 213, 205, 1)" stroke-width="1.5"></path><path d="M1309.19 353.3L1304.85 500.04" stroke="rgba(199, 213, 205, 1)" stroke-width="1.5"></path><path d="M1309.19 353.3L1407.65 205.02" stroke="rgba(199, 213, 205, 1)" stroke-width="1.5"></path><path d="M1309.19 353.3L1447.21 547" stroke="rgba(199, 213, 205, 1)" stroke-width="1.5"></path><path d="M1304.85 500.04L1304.85 500.04" stroke="rgba(199, 213, 205, 1)" stroke-width="1.5"></path><path d="M1304.85 500.04L1271.14 638.34" stroke="rgba(199, 213, 205, 1)" stroke-width="1.5"></path><path d="M1304.85 500.04L1447.21 547" stroke="rgba(199, 213, 205, 1)" stroke-width="1.5"></path><path d="M1304.85 500.04L1403.35 652.61" stroke="rgba(199, 213, 205, 1)" stroke-width="1.5"></path><path d="M1271.14 638.34L1271.14 638.34" stroke="rgba(199, 213, 205, 1)" stroke-width="1.5"></path><path d="M1271.14 638.34L1403.35 652.61" stroke="rgba(199, 213, 205, 1)" stroke-width="1.5"></path><path d="M1393.84 -55.01L1393.84 -55.01" stroke="rgba(199, 213, 205, 1)" stroke-width="1.5"></path><path d="M1393.84 -55.01L1270.38 -98.13" stroke="rgba(199, 213, 205, 1)" stroke-width="1.5"></path><path d="M1393.84 -55.01L1408.49 95.3" stroke="rgba(199, 213, 205, 1)" stroke-width="1.5"></path><path d="M1393.84 -55.01L1552.93 71.34" stroke="rgba(199, 213, 205, 1)" stroke-width="1.5"></path><path d="M1393.84 -55.01L1607.34 -72.22" stroke="rgba(199, 213, 205, 1)" stroke-width="1.5"></path><path d="M1408.49 95.3L1408.49 95.3" stroke="rgba(199, 213, 205, 1)" stroke-width="1.5"></path><path d="M1408.49 95.3L1407.65 205.02" stroke="rgba(199, 213, 205, 1)" stroke-width="1.5"></path><path d="M1408.49 95.3L1552.93 71.34" stroke="rgba(199, 213, 205, 1)" stroke-width="1.5"></path><path d="M1407.65 205.02L1407.65 205.02" stroke="rgba(199, 213, 205, 1)" stroke-width="1.5"></path><path d="M1407.65 205.02L1419.9 339.14" stroke="rgba(199, 213, 205, 1)" stroke-width="1.5"></path><path d="M1407.65 205.02L1568.86 252.11" stroke="rgba(199, 213, 205, 1)" stroke-width="1.5"></path><path d="M1419.9 339.14L1419.9 339.14" stroke="rgba(199, 213, 205, 1)" stroke-width="1.5"></path><path d="M1419.9 339.14L1554.79 383.55" stroke="rgba(199, 213, 205, 1)" stroke-width="1.5"></path><path d="M1419.9 339.14L1568.86 252.11" stroke="rgba(199, 213, 205, 1)" stroke-width="1.5"></path><path d="M1447.21 547L1447.21 547" stroke="rgba(199, 213, 205, 1)" stroke-width="1.5"></path><path d="M1447.21 547L1556.43 530.36" stroke="rgba(199, 213, 205, 1)" stroke-width="1.5"></path><path d="M1447.21 547L1403.35 652.61" stroke="rgba(199, 213, 205, 1)" stroke-width="1.5"></path><path d="M1447.21 547L1557.87 679.17" stroke="rgba(199, 213, 205, 1)" stroke-width="1.5"></path><path d="M1447.21 547L1554.79 383.55" stroke="rgba(199, 213, 205, 1)" stroke-width="1.5"></path><path d="M1403.35 652.61L1403.35 652.61" stroke="rgba(199, 213, 205, 1)" stroke-width="1.5"></path><path d="M1403.35 652.61L1557.87 679.17" stroke="rgba(199, 213, 205, 1)" stroke-width="1.5"></path><path d="M1403.35 652.61L1556.43 530.36" stroke="rgba(199, 213, 205, 1)" stroke-width="1.5"></path><path d="M1607.34 -72.22L1607.34 -72.22" stroke="rgba(199, 213, 205, 1)" stroke-width="1.5"></path><path d="M1607.34 -72.22L1552.93 71.34" stroke="rgba(199, 213, 205, 1)" stroke-width="1.5"></path><path d="M1607.34 -72.22L1408.49 95.3" stroke="rgba(199, 213, 205, 1)" stroke-width="1.5"></path><path d="M1607.34 -72.22L1568.86 252.11" stroke="rgba(199, 213, 205, 1)" stroke-width="1.5"></path><path d="M1552.93 71.34L1552.93 71.34" stroke="rgba(199, 213, 205, 1)" stroke-width="1.5"></path><path d="M1552.93 71.34L1568.86 252.11" stroke="rgba(199, 213, 205, 1)" stroke-width="1.5"></path><path d="M1552.93 71.34L1407.65 205.02" stroke="rgba(199, 213, 205, 1)" stroke-width="1.5"></path><path d="M1568.86 252.11L1568.86 252.11" stroke="rgba(199, 213, 205, 1)" stroke-width="1.5"></path><path d="M1568.86 252.11L1554.79 383.55" stroke="rgba(199, 213, 205, 1)" stroke-width="1.5"></path><path d="M1554.79 383.55L1554.79 383.55" stroke="rgba(199, 213, 205, 1)" stroke-width="1.5"></path><path d="M1556.43 530.36L1556.43 530.36" stroke="rgba(199, 213, 205, 1)" stroke-width="1.5"></path><path d="M1556.43 530.36L1554.79 383.55" stroke="rgba(199, 213, 205, 1)" stroke-width="1.5"></path><path d="M1556.43 530.36L1557.87 679.17" stroke="rgba(199, 213, 205, 1)" stroke-width="1.5"></path><path d="M1557.87 679.17L1557.87 679.17" stroke="rgba(199, 213, 205, 1)" stroke-width="1.5"></path><circle r="5" cx="-48.99" cy="365.35" fill="rgba(199, 213, 205, 1)"></circle><circle r="5" cx="-71.2" cy="542.87" fill="rgba(199, 213, 205, 1)"></circle><circle r="5" cx="-111.68" cy="641.74" fill="rgba(199, 213, 205, 1)"></circle><circle r="5" cx="75.19" cy="383.12" fill="rgba(199, 213, 205, 1)"></circle><circle r="5" cx="79.97" cy="526.49" fill="rgba(199, 213, 205, 1)"></circle><circle r="5" cx="60.22" cy="663.9" fill="rgba(199, 213, 205, 1)"></circle><circle r="5" cx="247.91" cy="390.64" fill="rgba(199, 213, 205, 1)"></circle><circle r="5" cx="239.73" cy="558.55" fill="rgba(199, 213, 205, 1)"></circle><circle r="5" cx="231.63" cy="674.53" fill="rgba(199, 213, 205, 1)"></circle><circle r="5" cx="358.03" cy="358.53" fill="rgba(199, 213, 205, 1)"></circle><circle r="5" cx="352.07" cy="548.62" fill="rgba(199, 213, 205, 1)"></circle><circle r="5" cx="349.97" cy="660.27" fill="rgba(199, 213, 205, 1)"></circle><circle r="5" cx="560.52" cy="363.5" fill="rgba(199, 213, 205, 1)"></circle><circle r="5" cx="552.87" cy="538.45" fill="rgba(199, 213, 205, 1)"></circle><circle r="5" cx="548.62" cy="691.46" fill="rgba(199, 213, 205, 1)"></circle><circle r="5" cx="697.12" cy="393.37" fill="rgba(199, 213, 205, 1)"></circle><circle r="5" cx="662.2" cy="490" fill="rgba(199, 213, 205, 1)"></circle><circle r="5" cx="703.82" cy="694.89" fill="rgba(199, 213, 205, 1)"></circle><circle r="5" cx="848.85" cy="79.97" fill="rgba(199, 213, 205, 1)"></circle><circle r="5" cx="841.17" cy="232.79" fill="rgba(199, 213, 205, 1)"></circle><circle r="5" cx="862.37" cy="380.1" fill="rgba(199, 213, 205, 1)"></circle><circle r="5" cx="795.87" cy="507.9" fill="rgba(199, 213, 205, 1)"></circle><circle r="5" cx="791.01" cy="705.58" fill="rgba(199, 213, 205, 1)"></circle><circle r="5" cx="945.34" cy="-52.5" fill="rgba(199, 213, 205, 1)"></circle><circle r="5" cx="941.24" cy="111.02" fill="rgba(199, 213, 205, 1)"></circle><circle r="5" cx="1001.46" cy="346.56" fill="rgba(199, 213, 205, 1)"></circle><circle r="5" cx="948.83" cy="528.74" fill="rgba(199, 213, 205, 1)"></circle><circle r="5" cx="962.83" cy="657.49" fill="rgba(199, 213, 205, 1)"></circle><circle r="5" cx="1160.24" cy="-46.87" fill="rgba(199, 213, 205, 1)"></circle><circle r="5" cx="1117.48" cy="206.74" fill="rgba(199, 213, 205, 1)"></circle><circle r="5" cx="1142.65" cy="378.53" fill="rgba(199, 213, 205, 1)"></circle><circle r="5" cx="1132.31" cy="525.21" fill="rgba(199, 213, 205, 1)"></circle><circle r="5" cx="1095.77" cy="678.6" fill="rgba(199, 213, 205, 1)"></circle><circle r="5" cx="1270.38" cy="-98.13" fill="rgba(199, 213, 205, 1)"></circle><circle r="5" cx="1241.28" cy="67.23" fill="rgba(199, 213, 205, 1)"></circle><circle r="5" cx="1242.42" cy="244.1" fill="rgba(199, 213, 205, 1)"></circle><circle r="5" cx="1309.19" cy="353.3" fill="rgba(199, 213, 205, 1)"></circle><circle r="5" cx="1304.85" cy="500.04" fill="rgba(199, 213, 205, 1)"></circle><circle r="5" cx="1271.14" cy="638.34" fill="rgba(199, 213, 205, 1)"></circle><circle r="5" cx="1393.84" cy="-55.01" fill="rgba(199, 213, 205, 1)"></circle><circle r="5" cx="1408.49" cy="95.3" fill="rgba(199, 213, 205, 1)"></circle><circle r="5" cx="1407.65" cy="205.02" fill="rgba(199, 213, 205, 1)"></circle><circle r="5" cx="1419.9" cy="339.14" fill="rgba(199, 213, 205, 1)"></circle><circle r="5" cx="1447.21" cy="547" fill="rgba(199, 213, 205, 1)"></circle><circle r="5" cx="1403.35" cy="652.61" fill="rgba(199, 213, 205, 1)"></circle><circle r="5" cx="1607.34" cy="-72.22" fill="rgba(199, 213, 205, 1)"></circle><circle r="5" cx="1552.93" cy="71.34" fill="rgba(199, 213, 205, 1)"></circle><circle r="5" cx="1568.86" cy="252.11" fill="rgba(199, 213, 205, 1)"></circle><circle r="5" cx="1554.79" cy="383.55" fill="rgba(199, 213, 205, 1)"></circle><circle r="5" cx="1556.43" cy="530.36" fill="rgba(199, 213, 205, 1)"></circle><circle r="5" cx="1557.87" cy="679.17" fill="rgba(199, 213, 205, 1)"></circle><path d="M-66.99 657.16L-66.99 657.16" stroke="hsl(144, 15.4%, 96.9%)" stroke-width="1.5"></path><path d="M-66.99 657.16L59.55 688.48" stroke="hsl(144, 15.4%, 96.9%)" stroke-width="1.5"></path><path d="M-66.99 657.16L-55.2 523.68" stroke="hsl(144, 15.4%, 96.9%)" stroke-width="1.5"></path><path d="M-66.99 657.16L56.35 490.76" stroke="hsl(144, 15.4%, 96.9%)" stroke-width="1.5"></path><path d="M-66.99 657.16L210.47 693.2" stroke="hsl(144, 15.4%, 96.9%)" stroke-width="1.5"></path><path d="M-66.99 657.16L218.02 497.19" stroke="hsl(144, 15.4%, 96.9%)" stroke-width="1.5"></path><path d="M59.55 688.48L59.55 688.48" stroke="hsl(144, 15.4%, 96.9%)" stroke-width="1.5"></path><path d="M59.55 688.48L210.47 693.2" stroke="hsl(144, 15.4%, 96.9%)" stroke-width="1.5"></path><path d="M59.55 688.48L56.35 490.76" stroke="hsl(144, 15.4%, 96.9%)" stroke-width="1.5"></path><path d="M59.55 688.48L-55.2 523.68" stroke="hsl(144, 15.4%, 96.9%)" stroke-width="1.5"></path><path d="M59.55 688.48L218.02 497.19" stroke="hsl(144, 15.4%, 96.9%)" stroke-width="1.5"></path><path d="M218.02 497.19L218.02 497.19" stroke="hsl(144, 15.4%, 96.9%)" stroke-width="1.5"></path><path d="M218.02 497.19L56.35 490.76" stroke="hsl(144, 15.4%, 96.9%)" stroke-width="1.5"></path><path d="M218.02 497.19L210.47 693.2" stroke="hsl(144, 15.4%, 96.9%)" stroke-width="1.5"></path><path d="M218.02 497.19L389.73 664.23" stroke="hsl(144, 15.4%, 96.9%)" stroke-width="1.5"></path><path d="M994.36 346.88L994.36 346.88" stroke="hsl(144, 15.4%, 96.9%)" stroke-width="1.5"></path><path d="M994.36 346.88L1089.25 403.21" stroke="hsl(144, 15.4%, 96.9%)" stroke-width="1.5"></path><path d="M994.36 346.88L1004.32 494.23" stroke="hsl(144, 15.4%, 96.9%)" stroke-width="1.5"></path><path d="M994.36 346.88L844.6 371.85" stroke="hsl(144, 15.4%, 96.9%)" stroke-width="1.5"></path><path d="M1273.81 219.47L1273.81 219.47" stroke="hsl(144, 15.4%, 96.9%)" stroke-width="1.5"></path><path d="M1273.81 219.47L1272.5 66.94" stroke="hsl(144, 15.4%, 96.9%)" stroke-width="1.5"></path><path d="M1273.81 219.47L1147.02 100.2" stroke="hsl(144, 15.4%, 96.9%)" stroke-width="1.5"></path><path d="M1449.92 103.16L1449.92 103.16" stroke="hsl(144, 15.4%, 96.9%)" stroke-width="1.5"></path><path d="M1449.92 103.16L1602.73 89.22" stroke="hsl(144, 15.4%, 96.9%)" stroke-width="1.5"></path><path d="M1449.92 103.16L1272.5 66.94" stroke="hsl(144, 15.4%, 96.9%)" stroke-width="1.5"></path><path d="M1449.92 103.16L1607.66 208.75" stroke="hsl(144, 15.4%, 96.9%)" stroke-width="1.5"></path><path d="M1449.92 103.16L1574.77 -55.82" stroke="hsl(144, 15.4%, 96.9%)" stroke-width="1.5"></path><path d="M1449.92 103.16L1273.81 219.47" stroke="hsl(144, 15.4%, 96.9%)" stroke-width="1.5"></path><path d="M1574.77 -55.82L1574.77 -55.82" stroke="hsl(144, 15.4%, 96.9%)" stroke-width="1.5"></path><path d="M1574.77 -55.82L1602.73 89.22" stroke="hsl(144, 15.4%, 96.9%)" stroke-width="1.5"></path><path d="M1607.66 208.75L1607.66 208.75" stroke="hsl(144, 15.4%, 96.9%)" stroke-width="1.5"></path><path d="M1607.66 208.75L1602.73 89.22" stroke="hsl(144, 15.4%, 96.9%)" stroke-width="1.5"></path><path d="M1607.66 208.75L1558.18 410.16" stroke="hsl(144, 15.4%, 96.9%)" stroke-width="1.5"></path><path d="M1607.66 208.75L1414.03 348.4" stroke="hsl(144, 15.4%, 96.9%)" stroke-width="1.5"></path><path d="M1607.66 208.75L1574.77 -55.82" stroke="hsl(144, 15.4%, 96.9%)" stroke-width="1.5"></path><path d="M1544.78 526.67L1544.78 526.67" stroke="hsl(144, 15.4%, 96.9%)" stroke-width="1.5"></path><path d="M1544.78 526.67L1459.87 540.9" stroke="hsl(144, 15.4%, 96.9%)" stroke-width="1.5"></path><path d="M1544.78 526.67L1558.18 410.16" stroke="hsl(144, 15.4%, 96.9%)" stroke-width="1.5"></path><path d="M1544.78 526.67L1604.17 666.02" stroke="hsl(144, 15.4%, 96.9%)" stroke-width="1.5"></path><path d="M1544.78 526.67L1393.15 641.08" stroke="hsl(144, 15.4%, 96.9%)" stroke-width="1.5"></path><path d="M1604.17 666.02L1604.17 666.02" stroke="hsl(144, 15.4%, 96.9%)" stroke-width="1.5"></path><path d="M1604.17 666.02L1459.87 540.9" stroke="hsl(144, 15.4%, 96.9%)" stroke-width="1.5"></path><path d="M-55.2 523.68L-55.2 523.68" stroke="hsl(144, 15.4%, 96.9%)" stroke-width="1.5"></path><path d="M-55.2 523.68L56.35 490.76" stroke="hsl(144, 15.4%, 96.9%)" stroke-width="1.5"></path><path d="M-55.2 523.68L218.02 497.19" stroke="hsl(144, 15.4%, 96.9%)" stroke-width="1.5"></path><path d="M-55.2 523.68L210.47 693.2" stroke="hsl(144, 15.4%, 96.9%)" stroke-width="1.5"></path><path d="M56.35 490.76L56.35 490.76" stroke="hsl(144, 15.4%, 96.9%)" stroke-width="1.5"></path><path d="M210.47 693.2L210.47 693.2" stroke="hsl(144, 15.4%, 96.9%)" stroke-width="1.5"></path><path d="M210.47 693.2L389.73 664.23" stroke="hsl(144, 15.4%, 96.9%)" stroke-width="1.5"></path><path d="M389.73 664.23L389.73 664.23" stroke="hsl(144, 15.4%, 96.9%)" stroke-width="1.5"></path><path d="M389.73 664.23L556.87 707.93" stroke="hsl(144, 15.4%, 96.9%)" stroke-width="1.5"></path><path d="M389.73 664.23L527.84 548.1" stroke="hsl(144, 15.4%, 96.9%)" stroke-width="1.5"></path><path d="M389.73 664.23L675.03 669.72" stroke="hsl(144, 15.4%, 96.9%)" stroke-width="1.5"></path><path d="M389.73 664.23L694.48 547.66" stroke="hsl(144, 15.4%, 96.9%)" stroke-width="1.5"></path><path d="M527.84 548.1L527.84 548.1" stroke="hsl(144, 15.4%, 96.9%)" stroke-width="1.5"></path><path d="M527.84 548.1L556.87 707.93" stroke="hsl(144, 15.4%, 96.9%)" stroke-width="1.5"></path><path d="M527.84 548.1L694.48 547.66" stroke="hsl(144, 15.4%, 96.9%)" stroke-width="1.5"></path><path d="M527.84 548.1L641.09 395.93" stroke="hsl(144, 15.4%, 96.9%)" stroke-width="1.5"></path><path d="M527.84 548.1L675.03 669.72" stroke="hsl(144, 15.4%, 96.9%)" stroke-width="1.5"></path><path d="M556.87 707.93L556.87 707.93" stroke="hsl(144, 15.4%, 96.9%)" stroke-width="1.5"></path><path d="M556.87 707.93L675.03 669.72" stroke="hsl(144, 15.4%, 96.9%)" stroke-width="1.5"></path><path d="M556.87 707.93L694.48 547.66" stroke="hsl(144, 15.4%, 96.9%)" stroke-width="1.5"></path><path d="M556.87 707.93L641.09 395.93" stroke="hsl(144, 15.4%, 96.9%)" stroke-width="1.5"></path><path d="M641.09 395.93L641.09 395.93" stroke="hsl(144, 15.4%, 96.9%)" stroke-width="1.5"></path><path d="M641.09 395.93L694.48 547.66" stroke="hsl(144, 15.4%, 96.9%)" stroke-width="1.5"></path><path d="M694.48 547.66L694.48 547.66" stroke="hsl(144, 15.4%, 96.9%)" stroke-width="1.5"></path><path d="M694.48 547.66L809.5 505.95" stroke="hsl(144, 15.4%, 96.9%)" stroke-width="1.5"></path><path d="M694.48 547.66L675.03 669.72" stroke="hsl(144, 15.4%, 96.9%)" stroke-width="1.5"></path><path d="M675.03 669.72L675.03 669.72" stroke="hsl(144, 15.4%, 96.9%)" stroke-width="1.5"></path><path d="M675.03 669.72L809.5 505.95" stroke="hsl(144, 15.4%, 96.9%)" stroke-width="1.5"></path><path d="M675.03 669.72L641.09 395.93" stroke="hsl(144, 15.4%, 96.9%)" stroke-width="1.5"></path><path d="M844.6 371.85L844.6 371.85" stroke="hsl(144, 15.4%, 96.9%)" stroke-width="1.5"></path><path d="M844.6 371.85L809.5 505.95" stroke="hsl(144, 15.4%, 96.9%)" stroke-width="1.5"></path><path d="M844.6 371.85L1004.32 494.23" stroke="hsl(144, 15.4%, 96.9%)" stroke-width="1.5"></path><path d="M844.6 371.85L641.09 395.93" stroke="hsl(144, 15.4%, 96.9%)" stroke-width="1.5"></path><path d="M809.5 505.95L809.5 505.95" stroke="hsl(144, 15.4%, 96.9%)" stroke-width="1.5"></path><path d="M809.5 505.95L1004.32 494.23" stroke="hsl(144, 15.4%, 96.9%)" stroke-width="1.5"></path><path d="M809.5 505.95L641.09 395.93" stroke="hsl(144, 15.4%, 96.9%)" stroke-width="1.5"></path><path d="M1004.32 494.23L1004.32 494.23" stroke="hsl(144, 15.4%, 96.9%)" stroke-width="1.5"></path><path d="M1004.32 494.23L1089.25 403.21" stroke="hsl(144, 15.4%, 96.9%)" stroke-width="1.5"></path><path d="M1004.32 494.23L1126.58 523.96" stroke="hsl(144, 15.4%, 96.9%)" stroke-width="1.5"></path><path d="M1004.32 494.23L961 668.39" stroke="hsl(144, 15.4%, 96.9%)" stroke-width="1.5"></path><path d="M961 668.39L961 668.39" stroke="hsl(144, 15.4%, 96.9%)" stroke-width="1.5"></path><path d="M961 668.39L1146.97 673.73" stroke="hsl(144, 15.4%, 96.9%)" stroke-width="1.5"></path><path d="M961 668.39L1126.58 523.96" stroke="hsl(144, 15.4%, 96.9%)" stroke-width="1.5"></path><path d="M961 668.39L809.5 505.95" stroke="hsl(144, 15.4%, 96.9%)" stroke-width="1.5"></path><path d="M1147.02 100.2L1147.02 100.2" stroke="hsl(144, 15.4%, 96.9%)" stroke-width="1.5"></path><path d="M1147.02 100.2L1272.5 66.94" stroke="hsl(144, 15.4%, 96.9%)" stroke-width="1.5"></path><path d="M1147.02 100.2L1090.27 222.53" stroke="hsl(144, 15.4%, 96.9%)" stroke-width="1.5"></path><path d="M1147.02 100.2L1238.01 -104.19" stroke="hsl(144, 15.4%, 96.9%)" stroke-width="1.5"></path><path d="M1147.02 100.2L994.36 346.88" stroke="hsl(144, 15.4%, 96.9%)" stroke-width="1.5"></path><path d="M1147.02 100.2L1449.92 103.16" stroke="hsl(144, 15.4%, 96.9%)" stroke-width="1.5"></path><path d="M1090.27 222.53L1090.27 222.53" stroke="hsl(144, 15.4%, 96.9%)" stroke-width="1.5"></path><path d="M1089.25 403.21L1089.25 403.21" stroke="hsl(144, 15.4%, 96.9%)" stroke-width="1.5"></path><path d="M1089.25 403.21L1126.58 523.96" stroke="hsl(144, 15.4%, 96.9%)" stroke-width="1.5"></path><path d="M1126.58 523.96L1126.58 523.96" stroke="hsl(144, 15.4%, 96.9%)" stroke-width="1.5"></path><path d="M1126.58 523.96L1146.97 673.73" stroke="hsl(144, 15.4%, 96.9%)" stroke-width="1.5"></path><path d="M1126.58 523.96L1237.75 399.41" stroke="hsl(144, 15.4%, 96.9%)" stroke-width="1.5"></path><path d="M1126.58 523.96L1294.63 492.35" stroke="hsl(144, 15.4%, 96.9%)" stroke-width="1.5"></path><path d="M1146.97 673.73L1146.97 673.73" stroke="hsl(144, 15.4%, 96.9%)" stroke-width="1.5"></path><path d="M1146.97 673.73L1004.32 494.23" stroke="hsl(144, 15.4%, 96.9%)" stroke-width="1.5"></path><path d="M1146.97 673.73L1294.63 492.35" stroke="hsl(144, 15.4%, 96.9%)" stroke-width="1.5"></path><path d="M1146.97 673.73L1393.15 641.08" stroke="hsl(144, 15.4%, 96.9%)" stroke-width="1.5"></path><path d="M1238.01 -104.19L1238.01 -104.19" stroke="hsl(144, 15.4%, 96.9%)" stroke-width="1.5"></path><path d="M1238.01 -104.19L1272.5 66.94" stroke="hsl(144, 15.4%, 96.9%)" stroke-width="1.5"></path><path d="M1238.01 -104.19L1449.92 103.16" stroke="hsl(144, 15.4%, 96.9%)" stroke-width="1.5"></path><path d="M1238.01 -104.19L1273.81 219.47" stroke="hsl(144, 15.4%, 96.9%)" stroke-width="1.5"></path><path d="M1238.01 -104.19L1574.77 -55.82" stroke="hsl(144, 15.4%, 96.9%)" stroke-width="1.5"></path><path d="M1238.01 -104.19L1090.27 222.53" stroke="hsl(144, 15.4%, 96.9%)" stroke-width="1.5"></path><path d="M1272.5 66.94L1272.5 66.94" stroke="hsl(144, 15.4%, 96.9%)" stroke-width="1.5"></path><path d="M1237.75 399.41L1237.75 399.41" stroke="hsl(144, 15.4%, 96.9%)" stroke-width="1.5"></path><path d="M1237.75 399.41L1294.63 492.35" stroke="hsl(144, 15.4%, 96.9%)" stroke-width="1.5"></path><path d="M1237.75 399.41L1089.25 403.21" stroke="hsl(144, 15.4%, 96.9%)" stroke-width="1.5"></path><path d="M1294.63 492.35L1294.63 492.35" stroke="hsl(144, 15.4%, 96.9%)" stroke-width="1.5"></path><path d="M1294.63 492.35L1459.87 540.9" stroke="hsl(144, 15.4%, 96.9%)" stroke-width="1.5"></path><path d="M1414.03 348.4L1414.03 348.4" stroke="hsl(144, 15.4%, 96.9%)" stroke-width="1.5"></path><path d="M1414.03 348.4L1558.18 410.16" stroke="hsl(144, 15.4%, 96.9%)" stroke-width="1.5"></path><path d="M1414.03 348.4L1237.75 399.41" stroke="hsl(144, 15.4%, 96.9%)" stroke-width="1.5"></path><path d="M1414.03 348.4L1294.63 492.35" stroke="hsl(144, 15.4%, 96.9%)" stroke-width="1.5"></path><path d="M1414.03 348.4L1273.81 219.47" stroke="hsl(144, 15.4%, 96.9%)" stroke-width="1.5"></path><path d="M1414.03 348.4L1459.87 540.9" stroke="hsl(144, 15.4%, 96.9%)" stroke-width="1.5"></path><path d="M1459.87 540.9L1459.87 540.9" stroke="hsl(144, 15.4%, 96.9%)" stroke-width="1.5"></path><path d="M1459.87 540.9L1393.15 641.08" stroke="hsl(144, 15.4%, 96.9%)" stroke-width="1.5"></path><path d="M1459.87 540.9L1558.18 410.16" stroke="hsl(144, 15.4%, 96.9%)" stroke-width="1.5"></path><path d="M1393.15 641.08L1393.15 641.08" stroke="hsl(144, 15.4%, 96.9%)" stroke-width="1.5"></path><path d="M1393.15 641.08L1294.63 492.35" stroke="hsl(144, 15.4%, 96.9%)" stroke-width="1.5"></path><path d="M1393.15 641.08L1604.17 666.02" stroke="hsl(144, 15.4%, 96.9%)" stroke-width="1.5"></path><path d="M1602.73 89.22L1602.73 89.22" stroke="hsl(144, 15.4%, 96.9%)" stroke-width="1.5"></path><path d="M1602.73 89.22L1414.03 348.4" stroke="hsl(144, 15.4%, 96.9%)" stroke-width="1.5"></path><path d="M1558.18 410.16L1558.18 410.16" stroke="hsl(144, 15.4%, 96.9%)" stroke-width="1.5"></path><circle r="25" cx="-66.99" cy="657.16" fill="url(#SvgjsRadialGradient1007)"></circle><circle r="25" cx="59.55" cy="688.48" fill="url(#SvgjsRadialGradient1007)"></circle><circle r="25" cx="218.02" cy="497.19" fill="url(#SvgjsRadialGradient1007)"></circle><circle r="25" cx="994.36" cy="346.88" fill="url(#SvgjsRadialGradient1007)"></circle><circle r="25" cx="1273.81" cy="219.47" fill="url(#SvgjsRadialGradient1007)"></circle><circle r="25" cx="1449.92" cy="103.16" fill="url(#SvgjsRadialGradient1007)"></circle><circle r="25" cx="1574.77" cy="-55.82" fill="url(#SvgjsRadialGradient1007)"></circle><circle r="25" cx="1607.66" cy="208.75" fill="url(#SvgjsRadialGradient1007)"></circle><circle r="25" cx="1544.78" cy="526.67" fill="url(#SvgjsRadialGradient1007)"></circle><circle r="25" cx="1604.17" cy="666.02" fill="url(#SvgjsRadialGradient1007)"></circle><circle r="5" cx="-55.2" cy="523.68" fill="#dae4de"></circle><circle r="5" cx="56.35" cy="490.76" fill="#dae4de"></circle><circle r="5" cx="210.47" cy="693.2" fill="#dae4de"></circle><circle r="5" cx="389.73" cy="664.23" fill="#dae4de"></circle><circle r="5" cx="527.84" cy="548.1" fill="#dae4de"></circle><circle r="5" cx="556.87" cy="707.93" fill="#dae4de"></circle><circle r="5" cx="641.09" cy="395.93" fill="#dae4de"></circle><circle r="5" cx="694.48" cy="547.66" fill="#dae4de"></circle><circle r="5" cx="675.03" cy="669.72" fill="#dae4de"></circle><circle r="5" cx="844.6" cy="371.85" fill="#dae4de"></circle><circle r="5" cx="809.5" cy="505.95" fill="#dae4de"></circle><circle r="5" cx="1004.32" cy="494.23" fill="#dae4de"></circle><circle r="5" cx="961" cy="668.39" fill="#dae4de"></circle><circle r="5" cx="1147.02" cy="100.2" fill="#dae4de"></circle><circle r="5" cx="1090.27" cy="222.53" fill="#dae4de"></circle><circle r="5" cx="1089.25" cy="403.21" fill="#dae4de"></circle><circle r="5" cx="1126.58" cy="523.96" fill="#dae4de"></circle><circle r="5" cx="1146.97" cy="673.73" fill="#dae4de"></circle><circle r="5" cx="1238.01" cy="-104.19" fill="#dae4de"></circle><circle r="5" cx="1272.5" cy="66.94" fill="#dae4de"></circle><circle r="5" cx="1237.75" cy="399.41" fill="#dae4de"></circle><circle r="5" cx="1294.63" cy="492.35" fill="#dae4de"></circle><circle r="5" cx="1414.03" cy="348.4" fill="#dae4de"></circle><circle r="5" cx="1459.87" cy="540.9" fill="#dae4de"></circle><circle r="5" cx="1393.15" cy="641.08" fill="#dae4de"></circle><circle r="5" cx="1602.73" cy="89.22" fill="#dae4de"></circle><circle r="5" cx="1558.18" cy="410.16" fill="#dae4de"></circle></g><defs><mask id="SvgjsMask1006"><rect width="1440" height="560" fill="#ffffff"></rect></mask><radialGradient id="SvgjsRadialGradient1007"><stop stop-color="#ffffff" offset="0.1"></stop><stop stop-color="rgba(180, 200, 188, 1)" offset="0.2"></stop><stop stop-color="rgba(180, 200, 188, 0)" offset="1"></stop></radialGradient></defs></svg>