<svg xmlns="http://www.w3.org/2000/svg" version="1.1" xmlns:xlink="http://www.w3.org/1999/xlink" xmlns:svgjs="http://svgjs.com/svgjs" width="1440" height="560" preserveAspectRatio="none" viewBox="0 0 1440 560"><g mask="url(&quot;#SvgjsMask1055&quot;)" fill="none"><path d="M-91.25 374.74L-91.25 374.74" stroke="rgba(180, 200, 188, 1)" stroke-width="1.5"></path><path d="M-91.25 374.74L-63.53 514.25" stroke="rgba(180, 200, 188, 1)" stroke-width="1.5"></path><path d="M-91.25 374.74L70.03 363.22" stroke="rgba(180, 200, 188, 1)" stroke-width="1.5"></path><path d="M-91.25 374.74L74.52 650.36" stroke="rgba(180, 200, 188, 1)" stroke-width="1.5"></path><path d="M-63.53 514.25L-63.53 514.25" stroke="rgba(180, 200, 188, 1)" stroke-width="1.5"></path><path d="M-63.53 514.25L-93.17 698.61" stroke="rgba(180, 200, 188, 1)" stroke-width="1.5"></path><path d="M-63.53 514.25L74.52 650.36" stroke="rgba(180, 200, 188, 1)" stroke-width="1.5"></path><path d="M-63.53 514.25L70.03 363.22" stroke="rgba(180, 200, 188, 1)" stroke-width="1.5"></path><path d="M-93.17 698.61L-93.17 698.61" stroke="rgba(180, 200, 188, 1)" stroke-width="1.5"></path><path d="M-93.17 698.61L74.52 650.36" stroke="rgba(180, 200, 188, 1)" stroke-width="1.5"></path><path d="M-93.17 698.61L207.75 684.11" stroke="rgba(180, 200, 188, 1)" stroke-width="1.5"></path><path d="M-93.17 698.61L-91.25 374.74" stroke="rgba(180, 200, 188, 1)" stroke-width="1.5"></path><path d="M-93.17 698.61L207.56 519.62" stroke="rgba(180, 200, 188, 1)" stroke-width="1.5"></path><path d="M-93.17 698.61L70.03 363.22" stroke="rgba(180, 200, 188, 1)" stroke-width="1.5"></path><path d="M70.03 363.22L70.03 363.22" stroke="rgba(180, 200, 188, 1)" stroke-width="1.5"></path><path d="M74.52 650.36L74.52 650.36" stroke="rgba(180, 200, 188, 1)" stroke-width="1.5"></path><path d="M74.52 650.36L207.75 684.11" stroke="rgba(180, 200, 188, 1)" stroke-width="1.5"></path><path d="M74.52 650.36L207.56 519.62" stroke="rgba(180, 200, 188, 1)" stroke-width="1.5"></path><path d="M235.24 381.37L235.24 381.37" stroke="rgba(180, 200, 188, 1)" stroke-width="1.5"></path><path d="M235.24 381.37L207.56 519.62" stroke="rgba(180, 200, 188, 1)" stroke-width="1.5"></path><path d="M235.24 381.37L70.03 363.22" stroke="rgba(180, 200, 188, 1)" stroke-width="1.5"></path><path d="M235.24 381.37L403.1 370.61" stroke="rgba(180, 200, 188, 1)" stroke-width="1.5"></path><path d="M207.56 519.62L207.56 519.62" stroke="rgba(180, 200, 188, 1)" stroke-width="1.5"></path><path d="M207.56 519.62L207.75 684.11" stroke="rgba(180, 200, 188, 1)" stroke-width="1.5"></path><path d="M207.56 519.62L381.52 541.08" stroke="rgba(180, 200, 188, 1)" stroke-width="1.5"></path><path d="M207.56 519.62L70.03 363.22" stroke="rgba(180, 200, 188, 1)" stroke-width="1.5"></path><path d="M207.56 519.62L404.63 651.33" stroke="rgba(180, 200, 188, 1)" stroke-width="1.5"></path><path d="M207.75 684.11L207.75 684.11" stroke="rgba(180, 200, 188, 1)" stroke-width="1.5"></path><path d="M403.1 370.61L403.1 370.61" stroke="rgba(180, 200, 188, 1)" stroke-width="1.5"></path><path d="M403.1 370.61L531.81 339.6" stroke="rgba(180, 200, 188, 1)" stroke-width="1.5"></path><path d="M403.1 370.61L502.32 500.15" stroke="rgba(180, 200, 188, 1)" stroke-width="1.5"></path><path d="M403.1 370.61L381.52 541.08" stroke="rgba(180, 200, 188, 1)" stroke-width="1.5"></path><path d="M381.52 541.08L381.52 541.08" stroke="rgba(180, 200, 188, 1)" stroke-width="1.5"></path><path d="M381.52 541.08L404.63 651.33" stroke="rgba(180, 200, 188, 1)" stroke-width="1.5"></path><path d="M381.52 541.08L502.32 500.15" stroke="rgba(180, 200, 188, 1)" stroke-width="1.5"></path><path d="M404.63 651.33L404.63 651.33" stroke="rgba(180, 200, 188, 1)" stroke-width="1.5"></path><path d="M531.81 339.6L531.81 339.6" stroke="rgba(180, 200, 188, 1)" stroke-width="1.5"></path><path d="M531.81 339.6L502.32 500.15" stroke="rgba(180, 200, 188, 1)" stroke-width="1.5"></path><path d="M531.81 339.6L688.3 402.76" stroke="rgba(180, 200, 188, 1)" stroke-width="1.5"></path><path d="M531.81 339.6L381.52 541.08" stroke="rgba(180, 200, 188, 1)" stroke-width="1.5"></path><path d="M531.81 339.6L691.45 543.8" stroke="rgba(180, 200, 188, 1)" stroke-width="1.5"></path><path d="M502.32 500.15L502.32 500.15" stroke="rgba(180, 200, 188, 1)" stroke-width="1.5"></path><path d="M502.32 500.15L531.96 639.04" stroke="rgba(180, 200, 188, 1)" stroke-width="1.5"></path><path d="M531.96 639.04L531.96 639.04" stroke="rgba(180, 200, 188, 1)" stroke-width="1.5"></path><path d="M531.96 639.04L404.63 651.33" stroke="rgba(180, 200, 188, 1)" stroke-width="1.5"></path><path d="M531.96 639.04L697.69 643.21" stroke="rgba(180, 200, 188, 1)" stroke-width="1.5"></path><path d="M531.96 639.04L381.52 541.08" stroke="rgba(180, 200, 188, 1)" stroke-width="1.5"></path><path d="M531.96 639.04L691.45 543.8" stroke="rgba(180, 200, 188, 1)" stroke-width="1.5"></path><path d="M688.3 402.76L688.3 402.76" stroke="rgba(180, 200, 188, 1)" stroke-width="1.5"></path><path d="M688.3 402.76L691.45 543.8" stroke="rgba(180, 200, 188, 1)" stroke-width="1.5"></path><path d="M688.3 402.76L835.06 358.46" stroke="rgba(180, 200, 188, 1)" stroke-width="1.5"></path><path d="M688.3 402.76L817.3 508.6" stroke="rgba(180, 200, 188, 1)" stroke-width="1.5"></path><path d="M691.45 543.8L691.45 543.8" stroke="rgba(180, 200, 188, 1)" stroke-width="1.5"></path><path d="M691.45 543.8L697.69 643.21" stroke="rgba(180, 200, 188, 1)" stroke-width="1.5"></path><path d="M691.45 543.8L817.3 508.6" stroke="rgba(180, 200, 188, 1)" stroke-width="1.5"></path><path d="M697.69 643.21L697.69 643.21" stroke="rgba(180, 200, 188, 1)" stroke-width="1.5"></path><path d="M697.69 643.21L850.07 682.01" stroke="rgba(180, 200, 188, 1)" stroke-width="1.5"></path><path d="M697.69 643.21L817.3 508.6" stroke="rgba(180, 200, 188, 1)" stroke-width="1.5"></path><path d="M837.32 190.57L837.32 190.57" stroke="rgba(180, 200, 188, 1)" stroke-width="1.5"></path><path d="M837.32 190.57L996.03 233.71" stroke="rgba(180, 200, 188, 1)" stroke-width="1.5"></path><path d="M837.32 190.57L835.06 358.46" stroke="rgba(180, 200, 188, 1)" stroke-width="1.5"></path><path d="M837.32 190.57L955.07 344.13" stroke="rgba(180, 200, 188, 1)" stroke-width="1.5"></path><path d="M837.32 190.57L688.3 402.76" stroke="rgba(180, 200, 188, 1)" stroke-width="1.5"></path><path d="M837.32 190.57L1133.78 241.04" stroke="rgba(180, 200, 188, 1)" stroke-width="1.5"></path><path d="M837.32 190.57L1107.54 341.54" stroke="rgba(180, 200, 188, 1)" stroke-width="1.5"></path><path d="M835.06 358.46L835.06 358.46" stroke="rgba(180, 200, 188, 1)" stroke-width="1.5"></path><path d="M835.06 358.46L955.07 344.13" stroke="rgba(180, 200, 188, 1)" stroke-width="1.5"></path><path d="M835.06 358.46L817.3 508.6" stroke="rgba(180, 200, 188, 1)" stroke-width="1.5"></path><path d="M835.06 358.46L996.03 233.71" stroke="rgba(180, 200, 188, 1)" stroke-width="1.5"></path><path d="M817.3 508.6L817.3 508.6" stroke="rgba(180, 200, 188, 1)" stroke-width="1.5"></path><path d="M817.3 508.6L969.66 530.82" stroke="rgba(180, 200, 188, 1)" stroke-width="1.5"></path><path d="M850.07 682.01L850.07 682.01" stroke="rgba(180, 200, 188, 1)" stroke-width="1.5"></path><path d="M850.07 682.01L968.04 670.27" stroke="rgba(180, 200, 188, 1)" stroke-width="1.5"></path><path d="M944.94 -104.67L944.94 -104.67" stroke="rgba(180, 200, 188, 1)" stroke-width="1.5"></path><path d="M944.94 -104.67L1111.41 -41.13" stroke="rgba(180, 200, 188, 1)" stroke-width="1.5"></path><path d="M944.94 -104.67L1141.16 68.94" stroke="rgba(180, 200, 188, 1)" stroke-width="1.5"></path><path d="M944.94 -104.67L837.32 190.57" stroke="rgba(180, 200, 188, 1)" stroke-width="1.5"></path><path d="M944.94 -104.67L1277.13 -47.66" stroke="rgba(180, 200, 188, 1)" stroke-width="1.5"></path><path d="M996.03 233.71L996.03 233.71" stroke="rgba(180, 200, 188, 1)" stroke-width="1.5"></path><path d="M996.03 233.71L955.07 344.13" stroke="rgba(180, 200, 188, 1)" stroke-width="1.5"></path><path d="M996.03 233.71L1133.78 241.04" stroke="rgba(180, 200, 188, 1)" stroke-width="1.5"></path><path d="M996.03 233.71L1107.54 341.54" stroke="rgba(180, 200, 188, 1)" stroke-width="1.5"></path><path d="M955.07 344.13L955.07 344.13" stroke="rgba(180, 200, 188, 1)" stroke-width="1.5"></path><path d="M955.07 344.13L1107.54 341.54" stroke="rgba(180, 200, 188, 1)" stroke-width="1.5"></path><path d="M955.07 344.13L969.66 530.82" stroke="rgba(180, 200, 188, 1)" stroke-width="1.5"></path><path d="M969.66 530.82L969.66 530.82" stroke="rgba(180, 200, 188, 1)" stroke-width="1.5"></path><path d="M969.66 530.82L1096.49 550.49" stroke="rgba(180, 200, 188, 1)" stroke-width="1.5"></path><path d="M969.66 530.82L968.04 670.27" stroke="rgba(180, 200, 188, 1)" stroke-width="1.5"></path><path d="M968.04 670.27L968.04 670.27" stroke="rgba(180, 200, 188, 1)" stroke-width="1.5"></path><path d="M968.04 670.27L1096.49 550.49" stroke="rgba(180, 200, 188, 1)" stroke-width="1.5"></path><path d="M968.04 670.27L1157.01 693.12" stroke="rgba(180, 200, 188, 1)" stroke-width="1.5"></path><path d="M968.04 670.27L817.3 508.6" stroke="rgba(180, 200, 188, 1)" stroke-width="1.5"></path><path d="M1111.41 -41.13L1111.41 -41.13" stroke="rgba(180, 200, 188, 1)" stroke-width="1.5"></path><path d="M1111.41 -41.13L1141.16 68.94" stroke="rgba(180, 200, 188, 1)" stroke-width="1.5"></path><path d="M1111.41 -41.13L1277.13 -47.66" stroke="rgba(180, 200, 188, 1)" stroke-width="1.5"></path><path d="M1141.16 68.94L1141.16 68.94" stroke="rgba(180, 200, 188, 1)" stroke-width="1.5"></path><path d="M1141.16 68.94L1270.19 51.79" stroke="rgba(180, 200, 188, 1)" stroke-width="1.5"></path><path d="M1141.16 68.94L1133.78 241.04" stroke="rgba(180, 200, 188, 1)" stroke-width="1.5"></path><path d="M1141.16 68.94L1277.13 -47.66" stroke="rgba(180, 200, 188, 1)" stroke-width="1.5"></path><path d="M1133.78 241.04L1133.78 241.04" stroke="rgba(180, 200, 188, 1)" stroke-width="1.5"></path><path d="M1133.78 241.04L1107.54 341.54" stroke="rgba(180, 200, 188, 1)" stroke-width="1.5"></path><path d="M1107.54 341.54L1107.54 341.54" stroke="rgba(180, 200, 188, 1)" stroke-width="1.5"></path><path d="M1096.49 550.49L1096.49 550.49" stroke="rgba(180, 200, 188, 1)" stroke-width="1.5"></path><path d="M1096.49 550.49L1157.01 693.12" stroke="rgba(180, 200, 188, 1)" stroke-width="1.5"></path><path d="M1157.01 693.12L1157.01 693.12" stroke="rgba(180, 200, 188, 1)" stroke-width="1.5"></path><path d="M1157.01 693.12L1310.91 677.54" stroke="rgba(180, 200, 188, 1)" stroke-width="1.5"></path><path d="M1157.01 693.12L1296.87 511.75" stroke="rgba(180, 200, 188, 1)" stroke-width="1.5"></path><path d="M1157.01 693.12L969.66 530.82" stroke="rgba(180, 200, 188, 1)" stroke-width="1.5"></path><path d="M1277.13 -47.66L1277.13 -47.66" stroke="rgba(180, 200, 188, 1)" stroke-width="1.5"></path><path d="M1277.13 -47.66L1270.19 51.79" stroke="rgba(180, 200, 188, 1)" stroke-width="1.5"></path><path d="M1277.13 -47.66L1423.69 -84.92" stroke="rgba(180, 200, 188, 1)" stroke-width="1.5"></path><path d="M1277.13 -47.66L1445.6 92.33" stroke="rgba(180, 200, 188, 1)" stroke-width="1.5"></path><path d="M1277.13 -47.66L1542.98 -62.03" stroke="rgba(180, 200, 188, 1)" stroke-width="1.5"></path><path d="M1270.19 51.79L1270.19 51.79" stroke="rgba(180, 200, 188, 1)" stroke-width="1.5"></path><path d="M1270.19 51.79L1445.6 92.33" stroke="rgba(180, 200, 188, 1)" stroke-width="1.5"></path><path d="M1307.29 228.02L1307.29 228.02" stroke="rgba(180, 200, 188, 1)" stroke-width="1.5"></path><path d="M1307.29 228.02L1393.98 242.73" stroke="rgba(180, 200, 188, 1)" stroke-width="1.5"></path><path d="M1307.29 228.02L1276.04 396.71" stroke="rgba(180, 200, 188, 1)" stroke-width="1.5"></path><path d="M1307.29 228.02L1133.78 241.04" stroke="rgba(180, 200, 188, 1)" stroke-width="1.5"></path><path d="M1307.29 228.02L1422.13 359.29" stroke="rgba(180, 200, 188, 1)" stroke-width="1.5"></path><path d="M1307.29 228.02L1270.19 51.79" stroke="rgba(180, 200, 188, 1)" stroke-width="1.5"></path><path d="M1276.04 396.71L1276.04 396.71" stroke="rgba(180, 200, 188, 1)" stroke-width="1.5"></path><path d="M1276.04 396.71L1296.87 511.75" stroke="rgba(180, 200, 188, 1)" stroke-width="1.5"></path><path d="M1276.04 396.71L1422.13 359.29" stroke="rgba(180, 200, 188, 1)" stroke-width="1.5"></path><path d="M1276.04 396.71L1107.54 341.54" stroke="rgba(180, 200, 188, 1)" stroke-width="1.5"></path><path d="M1276.04 396.71L1393.98 242.73" stroke="rgba(180, 200, 188, 1)" stroke-width="1.5"></path><path d="M1276.04 396.71L1133.78 241.04" stroke="rgba(180, 200, 188, 1)" stroke-width="1.5"></path><path d="M1296.87 511.75L1296.87 511.75" stroke="rgba(180, 200, 188, 1)" stroke-width="1.5"></path><path d="M1296.87 511.75L1454.49 515.24" stroke="rgba(180, 200, 188, 1)" stroke-width="1.5"></path><path d="M1296.87 511.75L1310.91 677.54" stroke="rgba(180, 200, 188, 1)" stroke-width="1.5"></path><path d="M1296.87 511.75L1422.13 359.29" stroke="rgba(180, 200, 188, 1)" stroke-width="1.5"></path><path d="M1310.91 677.54L1310.91 677.54" stroke="rgba(180, 200, 188, 1)" stroke-width="1.5"></path><path d="M1310.91 677.54L1445.97 668.22" stroke="rgba(180, 200, 188, 1)" stroke-width="1.5"></path><path d="M1310.91 677.54L1454.49 515.24" stroke="rgba(180, 200, 188, 1)" stroke-width="1.5"></path><path d="M1310.91 677.54L1096.49 550.49" stroke="rgba(180, 200, 188, 1)" stroke-width="1.5"></path><path d="M1423.69 -84.92L1423.69 -84.92" stroke="rgba(180, 200, 188, 1)" stroke-width="1.5"></path><path d="M1423.69 -84.92L1542.98 -62.03" stroke="rgba(180, 200, 188, 1)" stroke-width="1.5"></path><path d="M1445.6 92.33L1445.6 92.33" stroke="rgba(180, 200, 188, 1)" stroke-width="1.5"></path><path d="M1445.6 92.33L1393.98 242.73" stroke="rgba(180, 200, 188, 1)" stroke-width="1.5"></path><path d="M1445.6 92.33L1605 55.95" stroke="rgba(180, 200, 188, 1)" stroke-width="1.5"></path><path d="M1445.6 92.33L1423.69 -84.92" stroke="rgba(180, 200, 188, 1)" stroke-width="1.5"></path><path d="M1445.6 92.33L1583.39 208.17" stroke="rgba(180, 200, 188, 1)" stroke-width="1.5"></path><path d="M1393.98 242.73L1393.98 242.73" stroke="rgba(180, 200, 188, 1)" stroke-width="1.5"></path><path d="M1393.98 242.73L1422.13 359.29" stroke="rgba(180, 200, 188, 1)" stroke-width="1.5"></path><path d="M1393.98 242.73L1583.39 208.17" stroke="rgba(180, 200, 188, 1)" stroke-width="1.5"></path><path d="M1393.98 242.73L1270.19 51.79" stroke="rgba(180, 200, 188, 1)" stroke-width="1.5"></path><path d="M1422.13 359.29L1422.13 359.29" stroke="rgba(180, 200, 188, 1)" stroke-width="1.5"></path><path d="M1422.13 359.29L1454.49 515.24" stroke="rgba(180, 200, 188, 1)" stroke-width="1.5"></path><path d="M1422.13 359.29L1582.02 373.68" stroke="rgba(180, 200, 188, 1)" stroke-width="1.5"></path><path d="M1454.49 515.24L1454.49 515.24" stroke="rgba(180, 200, 188, 1)" stroke-width="1.5"></path><path d="M1454.49 515.24L1445.97 668.22" stroke="rgba(180, 200, 188, 1)" stroke-width="1.5"></path><path d="M1445.97 668.22L1445.97 668.22" stroke="rgba(180, 200, 188, 1)" stroke-width="1.5"></path><path d="M1445.97 668.22L1296.87 511.75" stroke="rgba(180, 200, 188, 1)" stroke-width="1.5"></path><path d="M1445.97 668.22L1157.01 693.12" stroke="rgba(180, 200, 188, 1)" stroke-width="1.5"></path><path d="M1445.97 668.22L1422.13 359.29" stroke="rgba(180, 200, 188, 1)" stroke-width="1.5"></path><path d="M1542.98 -62.03L1542.98 -62.03" stroke="rgba(180, 200, 188, 1)" stroke-width="1.5"></path><path d="M1542.98 -62.03L1605 55.95" stroke="rgba(180, 200, 188, 1)" stroke-width="1.5"></path><path d="M1542.98 -62.03L1445.6 92.33" stroke="rgba(180, 200, 188, 1)" stroke-width="1.5"></path><path d="M1542.98 -62.03L1583.39 208.17" stroke="rgba(180, 200, 188, 1)" stroke-width="1.5"></path><path d="M1542.98 -62.03L1270.19 51.79" stroke="rgba(180, 200, 188, 1)" stroke-width="1.5"></path><path d="M1605 55.95L1605 55.95" stroke="rgba(180, 200, 188, 1)" stroke-width="1.5"></path><path d="M1605 55.95L1583.39 208.17" stroke="rgba(180, 200, 188, 1)" stroke-width="1.5"></path><path d="M1605 55.95L1423.69 -84.92" stroke="rgba(180, 200, 188, 1)" stroke-width="1.5"></path><path d="M1605 55.95L1393.98 242.73" stroke="rgba(180, 200, 188, 1)" stroke-width="1.5"></path><path d="M1605 55.95L1582.02 373.68" stroke="rgba(180, 200, 188, 1)" stroke-width="1.5"></path><path d="M1583.39 208.17L1583.39 208.17" stroke="rgba(180, 200, 188, 1)" stroke-width="1.5"></path><path d="M1583.39 208.17L1582.02 373.68" stroke="rgba(180, 200, 188, 1)" stroke-width="1.5"></path><path d="M1583.39 208.17L1422.13 359.29" stroke="rgba(180, 200, 188, 1)" stroke-width="1.5"></path><path d="M1582.02 373.68L1582.02 373.68" stroke="rgba(180, 200, 188, 1)" stroke-width="1.5"></path><circle r="5" cx="-91.25" cy="374.74" fill="rgba(180, 200, 188, 1)"></circle><circle r="5" cx="-63.53" cy="514.25" fill="rgba(180, 200, 188, 1)"></circle><circle r="5" cx="-93.17" cy="698.61" fill="rgba(180, 200, 188, 1)"></circle><circle r="5" cx="70.03" cy="363.22" fill="rgba(180, 200, 188, 1)"></circle><circle r="5" cx="74.52" cy="650.36" fill="rgba(180, 200, 188, 1)"></circle><circle r="5" cx="235.24" cy="381.37" fill="rgba(180, 200, 188, 1)"></circle><circle r="5" cx="207.56" cy="519.62" fill="rgba(180, 200, 188, 1)"></circle><circle r="5" cx="207.75" cy="684.11" fill="rgba(180, 200, 188, 1)"></circle><circle r="5" cx="403.1" cy="370.61" fill="rgba(180, 200, 188, 1)"></circle><circle r="5" cx="381.52" cy="541.08" fill="rgba(180, 200, 188, 1)"></circle><circle r="5" cx="404.63" cy="651.33" fill="rgba(180, 200, 188, 1)"></circle><circle r="5" cx="531.81" cy="339.6" fill="rgba(180, 200, 188, 1)"></circle><circle r="5" cx="502.32" cy="500.15" fill="rgba(180, 200, 188, 1)"></circle><circle r="5" cx="531.96" cy="639.04" fill="rgba(180, 200, 188, 1)"></circle><circle r="5" cx="688.3" cy="402.76" fill="rgba(180, 200, 188, 1)"></circle><circle r="5" cx="691.45" cy="543.8" fill="rgba(180, 200, 188, 1)"></circle><circle r="5" cx="697.69" cy="643.21" fill="rgba(180, 200, 188, 1)"></circle><circle r="5" cx="837.32" cy="190.57" fill="rgba(180, 200, 188, 1)"></circle><circle r="5" cx="835.06" cy="358.46" fill="rgba(180, 200, 188, 1)"></circle><circle r="5" cx="817.3" cy="508.6" fill="rgba(180, 200, 188, 1)"></circle><circle r="5" cx="850.07" cy="682.01" fill="rgba(180, 200, 188, 1)"></circle><circle r="5" cx="944.94" cy="-104.67" fill="rgba(180, 200, 188, 1)"></circle><circle r="5" cx="996.03" cy="233.71" fill="rgba(180, 200, 188, 1)"></circle><circle r="5" cx="955.07" cy="344.13" fill="rgba(180, 200, 188, 1)"></circle><circle r="5" cx="969.66" cy="530.82" fill="rgba(180, 200, 188, 1)"></circle><circle r="5" cx="968.04" cy="670.27" fill="rgba(180, 200, 188, 1)"></circle><circle r="5" cx="1111.41" cy="-41.13" fill="rgba(180, 200, 188, 1)"></circle><circle r="5" cx="1141.16" cy="68.94" fill="rgba(180, 200, 188, 1)"></circle><circle r="5" cx="1133.78" cy="241.04" fill="rgba(180, 200, 188, 1)"></circle><circle r="5" cx="1107.54" cy="341.54" fill="rgba(180, 200, 188, 1)"></circle><circle r="5" cx="1096.49" cy="550.49" fill="rgba(180, 200, 188, 1)"></circle><circle r="5" cx="1157.01" cy="693.12" fill="rgba(180, 200, 188, 1)"></circle><circle r="5" cx="1277.13" cy="-47.66" fill="rgba(180, 200, 188, 1)"></circle><circle r="5" cx="1270.19" cy="51.79" fill="rgba(180, 200, 188, 1)"></circle><circle r="5" cx="1307.29" cy="228.02" fill="rgba(180, 200, 188, 1)"></circle><circle r="5" cx="1276.04" cy="396.71" fill="rgba(180, 200, 188, 1)"></circle><circle r="5" cx="1296.87" cy="511.75" fill="rgba(180, 200, 188, 1)"></circle><circle r="5" cx="1310.91" cy="677.54" fill="rgba(180, 200, 188, 1)"></circle><circle r="5" cx="1423.69" cy="-84.92" fill="rgba(180, 200, 188, 1)"></circle><circle r="5" cx="1445.6" cy="92.33" fill="rgba(180, 200, 188, 1)"></circle><circle r="5" cx="1393.98" cy="242.73" fill="rgba(180, 200, 188, 1)"></circle><circle r="5" cx="1422.13" cy="359.29" fill="rgba(180, 200, 188, 1)"></circle><circle r="5" cx="1454.49" cy="515.24" fill="rgba(180, 200, 188, 1)"></circle><circle r="5" cx="1445.97" cy="668.22" fill="rgba(180, 200, 188, 1)"></circle><circle r="5" cx="1542.98" cy="-62.03" fill="rgba(180, 200, 188, 1)"></circle><circle r="5" cx="1605" cy="55.95" fill="rgba(180, 200, 188, 1)"></circle><circle r="5" cx="1583.39" cy="208.17" fill="rgba(180, 200, 188, 1)"></circle><circle r="5" cx="1582.02" cy="373.68" fill="rgba(180, 200, 188, 1)"></circle><path d="M1267.87 -37.81L1267.87 -37.81" stroke="hsl(144, 15.4%, 96.9%)" stroke-width="1.5"></path><path d="M1267.87 -37.81L1426.02 -88.71" stroke="hsl(144, 15.4%, 96.9%)" stroke-width="1.5"></path><path d="M1267.87 -37.81L1150.42 89.47" stroke="hsl(144, 15.4%, 96.9%)" stroke-width="1.5"></path><path d="M1267.87 -37.81L1436.57 78.42" stroke="hsl(144, 15.4%, 96.9%)" stroke-width="1.5"></path><path d="M1267.87 -37.81L1264.57 211.58" stroke="hsl(144, 15.4%, 96.9%)" stroke-width="1.5"></path><path d="M1267.87 -37.81L1543.8 -97.76" stroke="hsl(144, 15.4%, 96.9%)" stroke-width="1.5"></path><path d="M1267.87 -37.81L1453.12 193.72" stroke="hsl(144, 15.4%, 96.9%)" stroke-width="1.5"></path><path d="M1436.57 78.42L1436.57 78.42" stroke="hsl(144, 15.4%, 96.9%)" stroke-width="1.5"></path><path d="M1436.57 78.42L1453.12 193.72" stroke="hsl(144, 15.4%, 96.9%)" stroke-width="1.5"></path><path d="M1436.57 78.42L1579.77 96.84" stroke="hsl(144, 15.4%, 96.9%)" stroke-width="1.5"></path><path d="M1436.57 78.42L1426.02 -88.71" stroke="hsl(144, 15.4%, 96.9%)" stroke-width="1.5"></path><path d="M1459.58 365.24L1459.58 365.24" stroke="hsl(144, 15.4%, 96.9%)" stroke-width="1.5"></path><path d="M1459.58 365.24L1568.01 389.25" stroke="hsl(144, 15.4%, 96.9%)" stroke-width="1.5"></path><path d="M1459.58 365.24L1553.44 494.51" stroke="hsl(144, 15.4%, 96.9%)" stroke-width="1.5"></path><path d="M-106.09 498.84L-106.09 498.84" stroke="hsl(144, 15.4%, 96.9%)" stroke-width="1.5"></path><path d="M-106.09 498.84L-91.41 657.9" stroke="hsl(144, 15.4%, 96.9%)" stroke-width="1.5"></path><path d="M-106.09 498.84L99.45 519.88" stroke="hsl(144, 15.4%, 96.9%)" stroke-width="1.5"></path><path d="M-106.09 498.84L42.64 709.62" stroke="hsl(144, 15.4%, 96.9%)" stroke-width="1.5"></path><path d="M-106.09 498.84L254.31 525.51" stroke="hsl(144, 15.4%, 96.9%)" stroke-width="1.5"></path><path d="M-91.41 657.9L-91.41 657.9" stroke="hsl(144, 15.4%, 96.9%)" stroke-width="1.5"></path><path d="M-91.41 657.9L42.64 709.62" stroke="hsl(144, 15.4%, 96.9%)" stroke-width="1.5"></path><path d="M99.45 519.88L99.45 519.88" stroke="hsl(144, 15.4%, 96.9%)" stroke-width="1.5"></path><path d="M99.45 519.88L254.31 525.51" stroke="hsl(144, 15.4%, 96.9%)" stroke-width="1.5"></path><path d="M99.45 519.88L42.64 709.62" stroke="hsl(144, 15.4%, 96.9%)" stroke-width="1.5"></path><path d="M99.45 519.88L243.41 674.74" stroke="hsl(144, 15.4%, 96.9%)" stroke-width="1.5"></path><path d="M42.64 709.62L42.64 709.62" stroke="hsl(144, 15.4%, 96.9%)" stroke-width="1.5"></path><path d="M42.64 709.62L243.41 674.74" stroke="hsl(144, 15.4%, 96.9%)" stroke-width="1.5"></path><path d="M42.64 709.62L254.31 525.51" stroke="hsl(144, 15.4%, 96.9%)" stroke-width="1.5"></path><path d="M42.64 709.62L355.19 510.54" stroke="hsl(144, 15.4%, 96.9%)" stroke-width="1.5"></path><path d="M254.31 525.51L254.31 525.51" stroke="hsl(144, 15.4%, 96.9%)" stroke-width="1.5"></path><path d="M254.31 525.51L355.19 510.54" stroke="hsl(144, 15.4%, 96.9%)" stroke-width="1.5"></path><path d="M243.41 674.74L243.41 674.74" stroke="hsl(144, 15.4%, 96.9%)" stroke-width="1.5"></path><path d="M243.41 674.74L254.31 525.51" stroke="hsl(144, 15.4%, 96.9%)" stroke-width="1.5"></path><path d="M243.41 674.74L355.19 510.54" stroke="hsl(144, 15.4%, 96.9%)" stroke-width="1.5"></path><path d="M243.41 674.74L497.01 661.63" stroke="hsl(144, 15.4%, 96.9%)" stroke-width="1.5"></path><path d="M243.41 674.74L496.83 504.24" stroke="hsl(144, 15.4%, 96.9%)" stroke-width="1.5"></path><path d="M355.19 510.54L355.19 510.54" stroke="hsl(144, 15.4%, 96.9%)" stroke-width="1.5"></path><path d="M355.19 510.54L496.83 504.24" stroke="hsl(144, 15.4%, 96.9%)" stroke-width="1.5"></path><path d="M557.99 403.8L557.99 403.8" stroke="hsl(144, 15.4%, 96.9%)" stroke-width="1.5"></path><path d="M557.99 403.8L640.28 396.32" stroke="hsl(144, 15.4%, 96.9%)" stroke-width="1.5"></path><path d="M557.99 403.8L496.83 504.24" stroke="hsl(144, 15.4%, 96.9%)" stroke-width="1.5"></path><path d="M496.83 504.24L496.83 504.24" stroke="hsl(144, 15.4%, 96.9%)" stroke-width="1.5"></path><path d="M496.83 504.24L497.01 661.63" stroke="hsl(144, 15.4%, 96.9%)" stroke-width="1.5"></path><path d="M496.83 504.24L640.28 396.32" stroke="hsl(144, 15.4%, 96.9%)" stroke-width="1.5"></path><path d="M497.01 661.63L497.01 661.63" stroke="hsl(144, 15.4%, 96.9%)" stroke-width="1.5"></path><path d="M497.01 661.63L655.28 694.09" stroke="hsl(144, 15.4%, 96.9%)" stroke-width="1.5"></path><path d="M640.28 396.32L640.28 396.32" stroke="hsl(144, 15.4%, 96.9%)" stroke-width="1.5"></path><path d="M640.28 396.32L794.85 406.39" stroke="hsl(144, 15.4%, 96.9%)" stroke-width="1.5"></path><path d="M640.28 396.32L670.1 560.69" stroke="hsl(144, 15.4%, 96.9%)" stroke-width="1.5"></path><path d="M670.1 560.69L670.1 560.69" stroke="hsl(144, 15.4%, 96.9%)" stroke-width="1.5"></path><path d="M670.1 560.69L655.28 694.09" stroke="hsl(144, 15.4%, 96.9%)" stroke-width="1.5"></path><path d="M670.1 560.69L496.83 504.24" stroke="hsl(144, 15.4%, 96.9%)" stroke-width="1.5"></path><path d="M670.1 560.69L557.99 403.8" stroke="hsl(144, 15.4%, 96.9%)" stroke-width="1.5"></path><path d="M670.1 560.69L794.85 406.39" stroke="hsl(144, 15.4%, 96.9%)" stroke-width="1.5"></path><path d="M670.1 560.69L497.01 661.63" stroke="hsl(144, 15.4%, 96.9%)" stroke-width="1.5"></path><path d="M655.28 694.09L655.28 694.09" stroke="hsl(144, 15.4%, 96.9%)" stroke-width="1.5"></path><path d="M794.85 406.39L794.85 406.39" stroke="hsl(144, 15.4%, 96.9%)" stroke-width="1.5"></path><path d="M836.04 693.17L836.04 693.17" stroke="hsl(144, 15.4%, 96.9%)" stroke-width="1.5"></path><path d="M836.04 693.17L954.39 668.84" stroke="hsl(144, 15.4%, 96.9%)" stroke-width="1.5"></path><path d="M836.04 693.17L655.28 694.09" stroke="hsl(144, 15.4%, 96.9%)" stroke-width="1.5"></path><path d="M963.16 501.35L963.16 501.35" stroke="hsl(144, 15.4%, 96.9%)" stroke-width="1.5"></path><path d="M963.16 501.35L1097.85 546.11" stroke="hsl(144, 15.4%, 96.9%)" stroke-width="1.5"></path><path d="M963.16 501.35L954.39 668.84" stroke="hsl(144, 15.4%, 96.9%)" stroke-width="1.5"></path><path d="M963.16 501.35L1095.27 368.45" stroke="hsl(144, 15.4%, 96.9%)" stroke-width="1.5"></path><path d="M963.16 501.35L794.85 406.39" stroke="hsl(144, 15.4%, 96.9%)" stroke-width="1.5"></path><path d="M963.16 501.35L836.04 693.17" stroke="hsl(144, 15.4%, 96.9%)" stroke-width="1.5"></path><path d="M963.16 501.35L1131.53 695.7" stroke="hsl(144, 15.4%, 96.9%)" stroke-width="1.5"></path><path d="M954.39 668.84L954.39 668.84" stroke="hsl(144, 15.4%, 96.9%)" stroke-width="1.5"></path><path d="M954.39 668.84L1131.53 695.7" stroke="hsl(144, 15.4%, 96.9%)" stroke-width="1.5"></path><path d="M1150.42 89.47L1150.42 89.47" stroke="hsl(144, 15.4%, 96.9%)" stroke-width="1.5"></path><path d="M1150.42 89.47L1264.57 211.58" stroke="hsl(144, 15.4%, 96.9%)" stroke-width="1.5"></path><path d="M1150.42 89.47L1099.25 262.49" stroke="hsl(144, 15.4%, 96.9%)" stroke-width="1.5"></path><path d="M1150.42 89.47L1095.27 368.45" stroke="hsl(144, 15.4%, 96.9%)" stroke-width="1.5"></path><path d="M1150.42 89.47L1436.57 78.42" stroke="hsl(144, 15.4%, 96.9%)" stroke-width="1.5"></path><path d="M1150.42 89.47L1242.1 377.74" stroke="hsl(144, 15.4%, 96.9%)" stroke-width="1.5"></path><path d="M1099.25 262.49L1099.25 262.49" stroke="hsl(144, 15.4%, 96.9%)" stroke-width="1.5"></path><path d="M1099.25 262.49L1095.27 368.45" stroke="hsl(144, 15.4%, 96.9%)" stroke-width="1.5"></path><path d="M1099.25 262.49L1264.57 211.58" stroke="hsl(144, 15.4%, 96.9%)" stroke-width="1.5"></path><path d="M1099.25 262.49L1242.1 377.74" stroke="hsl(144, 15.4%, 96.9%)" stroke-width="1.5"></path><path d="M1099.25 262.49L963.16 501.35" stroke="hsl(144, 15.4%, 96.9%)" stroke-width="1.5"></path><path d="M1099.25 262.49L1097.85 546.11" stroke="hsl(144, 15.4%, 96.9%)" stroke-width="1.5"></path><path d="M1095.27 368.45L1095.27 368.45" stroke="hsl(144, 15.4%, 96.9%)" stroke-width="1.5"></path><path d="M1095.27 368.45L1242.1 377.74" stroke="hsl(144, 15.4%, 96.9%)" stroke-width="1.5"></path><path d="M1095.27 368.45L1097.85 546.11" stroke="hsl(144, 15.4%, 96.9%)" stroke-width="1.5"></path><path d="M1097.85 546.11L1097.85 546.11" stroke="hsl(144, 15.4%, 96.9%)" stroke-width="1.5"></path><path d="M1097.85 546.11L1131.53 695.7" stroke="hsl(144, 15.4%, 96.9%)" stroke-width="1.5"></path><path d="M1097.85 546.11L954.39 668.84" stroke="hsl(144, 15.4%, 96.9%)" stroke-width="1.5"></path><path d="M1097.85 546.11L1288.92 509.73" stroke="hsl(144, 15.4%, 96.9%)" stroke-width="1.5"></path><path d="M1097.85 546.11L1280.24 649.55" stroke="hsl(144, 15.4%, 96.9%)" stroke-width="1.5"></path><path d="M1131.53 695.7L1131.53 695.7" stroke="hsl(144, 15.4%, 96.9%)" stroke-width="1.5"></path><path d="M1131.53 695.7L1280.24 649.55" stroke="hsl(144, 15.4%, 96.9%)" stroke-width="1.5"></path><path d="M1264.57 211.58L1264.57 211.58" stroke="hsl(144, 15.4%, 96.9%)" stroke-width="1.5"></path><path d="M1264.57 211.58L1242.1 377.74" stroke="hsl(144, 15.4%, 96.9%)" stroke-width="1.5"></path><path d="M1264.57 211.58L1453.12 193.72" stroke="hsl(144, 15.4%, 96.9%)" stroke-width="1.5"></path><path d="M1242.1 377.74L1242.1 377.74" stroke="hsl(144, 15.4%, 96.9%)" stroke-width="1.5"></path><path d="M1242.1 377.74L1288.92 509.73" stroke="hsl(144, 15.4%, 96.9%)" stroke-width="1.5"></path><path d="M1242.1 377.74L1459.58 365.24" stroke="hsl(144, 15.4%, 96.9%)" stroke-width="1.5"></path><path d="M1288.92 509.73L1288.92 509.73" stroke="hsl(144, 15.4%, 96.9%)" stroke-width="1.5"></path><path d="M1288.92 509.73L1388.71 556.47" stroke="hsl(144, 15.4%, 96.9%)" stroke-width="1.5"></path><path d="M1288.92 509.73L1280.24 649.55" stroke="hsl(144, 15.4%, 96.9%)" stroke-width="1.5"></path><path d="M1280.24 649.55L1280.24 649.55" stroke="hsl(144, 15.4%, 96.9%)" stroke-width="1.5"></path><path d="M1280.24 649.55L1388.71 556.47" stroke="hsl(144, 15.4%, 96.9%)" stroke-width="1.5"></path><path d="M1426.02 -88.71L1426.02 -88.71" stroke="hsl(144, 15.4%, 96.9%)" stroke-width="1.5"></path><path d="M1426.02 -88.71L1543.8 -97.76" stroke="hsl(144, 15.4%, 96.9%)" stroke-width="1.5"></path><path d="M1426.02 -88.71L1579.77 96.84" stroke="hsl(144, 15.4%, 96.9%)" stroke-width="1.5"></path><path d="M1426.02 -88.71L1453.12 193.72" stroke="hsl(144, 15.4%, 96.9%)" stroke-width="1.5"></path><path d="M1453.12 193.72L1453.12 193.72" stroke="hsl(144, 15.4%, 96.9%)" stroke-width="1.5"></path><path d="M1453.12 193.72L1579.77 96.84" stroke="hsl(144, 15.4%, 96.9%)" stroke-width="1.5"></path><path d="M1453.12 193.72L1459.58 365.24" stroke="hsl(144, 15.4%, 96.9%)" stroke-width="1.5"></path><path d="M1388.71 556.47L1388.71 556.47" stroke="hsl(144, 15.4%, 96.9%)" stroke-width="1.5"></path><path d="M1388.71 556.47L1440.59 653.45" stroke="hsl(144, 15.4%, 96.9%)" stroke-width="1.5"></path><path d="M1388.71 556.47L1553.44 494.51" stroke="hsl(144, 15.4%, 96.9%)" stroke-width="1.5"></path><path d="M1440.59 653.45L1440.59 653.45" stroke="hsl(144, 15.4%, 96.9%)" stroke-width="1.5"></path><path d="M1440.59 653.45L1280.24 649.55" stroke="hsl(144, 15.4%, 96.9%)" stroke-width="1.5"></path><path d="M1440.59 653.45L1604.09 680.4" stroke="hsl(144, 15.4%, 96.9%)" stroke-width="1.5"></path><path d="M1543.8 -97.76L1543.8 -97.76" stroke="hsl(144, 15.4%, 96.9%)" stroke-width="1.5"></path><path d="M1579.77 96.84L1579.77 96.84" stroke="hsl(144, 15.4%, 96.9%)" stroke-width="1.5"></path><path d="M1579.77 96.84L1543.8 -97.76" stroke="hsl(144, 15.4%, 96.9%)" stroke-width="1.5"></path><path d="M1579.77 96.84L1568.01 389.25" stroke="hsl(144, 15.4%, 96.9%)" stroke-width="1.5"></path><path d="M1579.77 96.84L1459.58 365.24" stroke="hsl(144, 15.4%, 96.9%)" stroke-width="1.5"></path><path d="M1568.01 389.25L1568.01 389.25" stroke="hsl(144, 15.4%, 96.9%)" stroke-width="1.5"></path><path d="M1568.01 389.25L1553.44 494.51" stroke="hsl(144, 15.4%, 96.9%)" stroke-width="1.5"></path><path d="M1568.01 389.25L1453.12 193.72" stroke="hsl(144, 15.4%, 96.9%)" stroke-width="1.5"></path><path d="M1568.01 389.25L1388.71 556.47" stroke="hsl(144, 15.4%, 96.9%)" stroke-width="1.5"></path><path d="M1568.01 389.25L1440.59 653.45" stroke="hsl(144, 15.4%, 96.9%)" stroke-width="1.5"></path><path d="M1553.44 494.51L1553.44 494.51" stroke="hsl(144, 15.4%, 96.9%)" stroke-width="1.5"></path><path d="M1604.09 680.4L1604.09 680.4" stroke="hsl(144, 15.4%, 96.9%)" stroke-width="1.5"></path><path d="M1604.09 680.4L1553.44 494.51" stroke="hsl(144, 15.4%, 96.9%)" stroke-width="1.5"></path><path d="M1604.09 680.4L1388.71 556.47" stroke="hsl(144, 15.4%, 96.9%)" stroke-width="1.5"></path><path d="M1604.09 680.4L1568.01 389.25" stroke="hsl(144, 15.4%, 96.9%)" stroke-width="1.5"></path><path d="M1604.09 680.4L1280.24 649.55" stroke="hsl(144, 15.4%, 96.9%)" stroke-width="1.5"></path><path d="M1604.09 680.4L1459.58 365.24" stroke="hsl(144, 15.4%, 96.9%)" stroke-width="1.5"></path><circle r="25" cx="1267.87" cy="-37.81" fill="url(#SvgjsRadialGradient1056)"></circle><circle r="25" cx="1436.57" cy="78.42" fill="url(#SvgjsRadialGradient1056)"></circle><circle r="25" cx="1459.58" cy="365.24" fill="url(#SvgjsRadialGradient1056)"></circle><circle r="5" cx="-106.09" cy="498.84" fill="#dae4de"></circle><circle r="5" cx="-91.41" cy="657.9" fill="#dae4de"></circle><circle r="5" cx="99.45" cy="519.88" fill="#dae4de"></circle><circle r="5" cx="42.64" cy="709.62" fill="#dae4de"></circle><circle r="5" cx="254.31" cy="525.51" fill="#dae4de"></circle><circle r="5" cx="243.41" cy="674.74" fill="#dae4de"></circle><circle r="5" cx="355.19" cy="510.54" fill="#dae4de"></circle><circle r="5" cx="557.99" cy="403.8" fill="#dae4de"></circle><circle r="5" cx="496.83" cy="504.24" fill="#dae4de"></circle><circle r="5" cx="497.01" cy="661.63" fill="#dae4de"></circle><circle r="5" cx="640.28" cy="396.32" fill="#dae4de"></circle><circle r="5" cx="670.1" cy="560.69" fill="#dae4de"></circle><circle r="5" cx="655.28" cy="694.09" fill="#dae4de"></circle><circle r="5" cx="794.85" cy="406.39" fill="#dae4de"></circle><circle r="5" cx="836.04" cy="693.17" fill="#dae4de"></circle><circle r="5" cx="963.16" cy="501.35" fill="#dae4de"></circle><circle r="5" cx="954.39" cy="668.84" fill="#dae4de"></circle><circle r="5" cx="1150.42" cy="89.47" fill="#dae4de"></circle><circle r="5" cx="1099.25" cy="262.49" fill="#dae4de"></circle><circle r="5" cx="1095.27" cy="368.45" fill="#dae4de"></circle><circle r="5" cx="1097.85" cy="546.11" fill="#dae4de"></circle><circle r="5" cx="1131.53" cy="695.7" fill="#dae4de"></circle><circle r="5" cx="1264.57" cy="211.58" fill="#dae4de"></circle><circle r="5" cx="1242.1" cy="377.74" fill="#dae4de"></circle><circle r="5" cx="1288.92" cy="509.73" fill="#dae4de"></circle><circle r="5" cx="1280.24" cy="649.55" fill="#dae4de"></circle><circle r="5" cx="1426.02" cy="-88.71" fill="#dae4de"></circle><circle r="5" cx="1453.12" cy="193.72" fill="#dae4de"></circle><circle r="5" cx="1388.71" cy="556.47" fill="#dae4de"></circle><circle r="5" cx="1440.59" cy="653.45" fill="#dae4de"></circle><circle r="5" cx="1543.8" cy="-97.76" fill="#dae4de"></circle><circle r="5" cx="1579.77" cy="96.84" fill="#dae4de"></circle><circle r="5" cx="1568.01" cy="389.25" fill="#dae4de"></circle><circle r="5" cx="1553.44" cy="494.51" fill="#dae4de"></circle><circle r="5" cx="1604.09" cy="680.4" fill="#dae4de"></circle></g><defs><mask id="SvgjsMask1055"><rect width="1440" height="560" fill="#ffffff"></rect></mask><radialGradient id="SvgjsRadialGradient1056"><stop stop-color="#ffffff" offset="0.1"></stop><stop stop-color="rgba(180, 200, 188, 1)" offset="0.2"></stop><stop stop-color="rgba(180, 200, 188, 0)" offset="1"></stop></radialGradient></defs></svg>